<svg width="1536" height="183" viewBox="0 0 1536 183" fill="none" xmlns="http://www.w3.org/2000/svg">
<rect x="120.5" y="52.5" width="1295" height="97.4441" rx="15.5" fill="white"/>
<rect x="120.5" y="52.5" width="1295" height="97.4441" rx="15.5" stroke="#E5E7EB"/>
<path d="M172 103.222H173C174.1 103.222 175 102.322 175 101.222V91.222H166C164.5 91.222 163.19 92.052 162.51 93.272" stroke="#111827" stroke-width="1.5" stroke-linecap="round" stroke-linejoin="round"/>
<path d="M162 106.222C162 107.882 163.34 109.222 165 109.222H166C166 108.122 166.9 107.222 168 107.222C169.1 107.222 170 108.122 170 109.222H174C174 108.122 174.9 107.222 176 107.222C177.1 107.222 178 108.122 178 109.222H179C180.66 109.222 182 107.882 182 106.222V103.222H179C178.45 103.222 178 102.772 178 102.222V99.222C178 98.672 178.45 98.222 179 98.222H180.29L178.58 95.2321C178.22 94.6121 177.56 94.222 176.84 94.222H175V101.222C175 102.322 174.1 103.222 173 103.222H172" stroke="#111827" stroke-width="1.5" stroke-linecap="round" stroke-linejoin="round"/>
<path d="M168 111.222C169.105 111.222 170 110.327 170 109.222C170 108.117 169.105 107.222 168 107.222C166.895 107.222 166 108.117 166 109.222C166 110.327 166.895 111.222 168 111.222Z" stroke="#111827" stroke-width="1.5" stroke-linecap="round" stroke-linejoin="round"/>
<path d="M176 111.222C177.105 111.222 178 110.327 178 109.222C178 108.117 177.105 107.222 176 107.222C174.895 107.222 174 108.117 174 109.222C174 110.327 174.895 111.222 176 111.222Z" stroke="#111827" stroke-width="1.5" stroke-linecap="round" stroke-linejoin="round"/>
<path d="M182 101.222V103.222H179C178.45 103.222 178 102.772 178 102.222V99.222C178 98.672 178.45 98.222 179 98.222H180.29L182 101.222Z" stroke="#111827" stroke-width="1.5" stroke-linecap="round" stroke-linejoin="round"/>
<path d="M162 97.222H168" stroke="#111827" stroke-width="1.5" stroke-linecap="round" stroke-linejoin="round"/>
<path d="M162 100.222H166" stroke="#111827" stroke-width="1.5" stroke-linecap="round" stroke-linejoin="round"/>
<path d="M162 103.222H164" stroke="#111827" stroke-width="1.5" stroke-linecap="round" stroke-linejoin="round"/>
<path d="M209 83.658V85.692H203.762V88.914H207.776V90.912H203.762V96.222H201.242V83.658H209ZM213.307 87.798C213.631 87.27 214.051 86.856 214.567 86.556C215.095 86.256 215.695 86.106 216.367 86.106V88.752H215.701C214.909 88.752 214.309 88.938 213.901 89.31C213.505 89.682 213.307 90.33 213.307 91.254V96.222H210.787V86.25H213.307V87.798ZM227.334 91.02C227.334 91.38 227.31 91.704 227.262 91.992H219.972C220.032 92.712 220.284 93.276 220.728 93.684C221.172 94.092 221.718 94.296 222.366 94.296C223.302 94.296 223.968 93.894 224.364 93.09H227.082C226.794 94.05 226.242 94.842 225.426 95.466C224.61 96.078 223.608 96.384 222.42 96.384C221.46 96.384 220.596 96.174 219.828 95.754C219.072 95.322 218.478 94.716 218.046 93.936C217.626 93.156 217.416 92.256 217.416 91.236C217.416 90.204 217.626 89.298 218.046 88.518C218.466 87.738 219.054 87.138 219.81 86.718C220.566 86.298 221.436 86.088 222.42 86.088C223.368 86.088 224.214 86.292 224.958 86.7C225.714 87.108 226.296 87.69 226.704 88.446C227.124 89.19 227.334 90.048 227.334 91.02ZM224.724 90.3C224.712 89.652 224.478 89.136 224.022 88.752C223.566 88.356 223.008 88.158 222.348 88.158C221.724 88.158 221.196 88.35 220.764 88.734C220.344 89.106 220.086 89.628 219.99 90.3H224.724ZM238.444 91.02C238.444 91.38 238.42 91.704 238.372 91.992H231.082C231.142 92.712 231.394 93.276 231.838 93.684C232.282 94.092 232.828 94.296 233.476 94.296C234.412 94.296 235.078 93.894 235.474 93.09H238.192C237.904 94.05 237.352 94.842 236.536 95.466C235.72 96.078 234.718 96.384 233.53 96.384C232.57 96.384 231.706 96.174 230.938 95.754C230.182 95.322 229.588 94.716 229.156 93.936C228.736 93.156 228.526 92.256 228.526 91.236C228.526 90.204 228.736 89.298 229.156 88.518C229.576 87.738 230.164 87.138 230.92 86.718C231.676 86.298 232.546 86.088 233.53 86.088C234.478 86.088 235.324 86.292 236.068 86.7C236.824 87.108 237.406 87.69 237.814 88.446C238.234 89.19 238.444 90.048 238.444 91.02ZM235.834 90.3C235.822 89.652 235.588 89.136 235.132 88.752C234.676 88.356 234.118 88.158 233.458 88.158C232.834 88.158 232.306 88.35 231.874 88.734C231.454 89.106 231.196 89.628 231.1 90.3H235.834ZM248.388 96.384C247.572 96.384 246.84 96.24 246.192 95.952C245.544 95.652 245.028 95.25 244.644 94.746C244.272 94.242 244.068 93.684 244.032 93.072H246.57C246.618 93.456 246.804 93.774 247.128 94.026C247.464 94.278 247.878 94.404 248.37 94.404C248.85 94.404 249.222 94.308 249.486 94.116C249.762 93.924 249.9 93.678 249.9 93.378C249.9 93.054 249.732 92.814 249.396 92.658C249.072 92.49 248.55 92.31 247.83 92.118C247.086 91.938 246.474 91.752 245.994 91.56C245.526 91.368 245.118 91.074 244.77 90.678C244.434 90.282 244.266 89.748 244.266 89.076C244.266 88.524 244.422 88.02 244.734 87.564C245.058 87.108 245.514 86.748 246.102 86.484C246.702 86.22 247.404 86.088 248.208 86.088C249.396 86.088 250.344 86.388 251.052 86.988C251.76 87.576 252.15 88.374 252.222 89.382H249.81C249.774 88.986 249.606 88.674 249.306 88.446C249.018 88.206 248.628 88.086 248.136 88.086C247.68 88.086 247.326 88.17 247.074 88.338C246.834 88.506 246.714 88.74 246.714 89.04C246.714 89.376 246.882 89.634 247.218 89.814C247.554 89.982 248.076 90.156 248.784 90.336C249.504 90.516 250.098 90.702 250.566 90.894C251.034 91.086 251.436 91.386 251.772 91.794C252.12 92.19 252.3 92.718 252.312 93.378C252.312 93.954 252.15 94.47 251.826 94.926C251.514 95.382 251.058 95.742 250.458 96.006C249.87 96.258 249.18 96.384 248.388 96.384ZM259.997 86.106C260.753 86.106 261.425 86.274 262.013 86.61C262.601 86.934 263.057 87.42 263.381 88.068C263.717 88.704 263.885 89.472 263.885 90.372V96.222H261.365V90.714C261.365 89.922 261.167 89.316 260.771 88.896C260.375 88.464 259.835 88.248 259.151 88.248C258.455 88.248 257.903 88.464 257.495 88.896C257.099 89.316 256.901 89.922 256.901 90.714V96.222H254.381V82.902H256.901V87.492C257.225 87.06 257.657 86.724 258.197 86.484C258.737 86.232 259.337 86.106 259.997 86.106ZM267.559 85.062C267.115 85.062 266.743 84.924 266.443 84.648C266.155 84.36 266.011 84.006 266.011 83.586C266.011 83.166 266.155 82.818 266.443 82.542C266.743 82.254 267.115 82.11 267.559 82.11C268.003 82.11 268.369 82.254 268.657 82.542C268.957 82.818 269.107 83.166 269.107 83.586C269.107 84.006 268.957 84.36 268.657 84.648C268.369 84.924 268.003 85.062 267.559 85.062ZM268.801 86.25V96.222H266.281V86.25H268.801ZM273.811 87.69C274.135 87.234 274.579 86.856 275.143 86.556C275.719 86.244 276.373 86.088 277.105 86.088C277.957 86.088 278.725 86.298 279.409 86.718C280.105 87.138 280.651 87.738 281.047 88.518C281.455 89.286 281.659 90.18 281.659 91.2C281.659 92.22 281.455 93.126 281.047 93.918C280.651 94.698 280.105 95.304 279.409 95.736C278.725 96.168 277.957 96.384 277.105 96.384C276.373 96.384 275.725 96.234 275.161 95.934C274.609 95.634 274.159 95.256 273.811 94.8V100.974H271.291V86.25H273.811V87.69ZM279.085 91.2C279.085 90.6 278.959 90.084 278.707 89.652C278.467 89.208 278.143 88.872 277.735 88.644C277.339 88.416 276.907 88.302 276.439 88.302C275.983 88.302 275.551 88.422 275.143 88.662C274.747 88.89 274.423 89.226 274.171 89.67C273.931 90.114 273.811 90.636 273.811 91.236C273.811 91.836 273.931 92.358 274.171 92.802C274.423 93.246 274.747 93.588 275.143 93.828C275.551 94.056 275.983 94.17 276.439 94.17C276.907 94.17 277.339 94.05 277.735 93.81C278.143 93.57 278.467 93.228 278.707 92.784C278.959 92.34 279.085 91.812 279.085 91.2ZM286.01 87.69C286.334 87.234 286.778 86.856 287.342 86.556C287.918 86.244 288.572 86.088 289.304 86.088C290.156 86.088 290.924 86.298 291.608 86.718C292.304 87.138 292.85 87.738 293.246 88.518C293.654 89.286 293.858 90.18 293.858 91.2C293.858 92.22 293.654 93.126 293.246 93.918C292.85 94.698 292.304 95.304 291.608 95.736C290.924 96.168 290.156 96.384 289.304 96.384C288.572 96.384 287.924 96.234 287.36 95.934C286.808 95.634 286.358 95.256 286.01 94.8V100.974H283.49V86.25H286.01V87.69ZM291.284 91.2C291.284 90.6 291.158 90.084 290.906 89.652C290.666 89.208 290.342 88.872 289.934 88.644C289.538 88.416 289.106 88.302 288.638 88.302C288.182 88.302 287.75 88.422 287.342 88.662C286.946 88.89 286.622 89.226 286.37 89.67C286.13 90.114 286.01 90.636 286.01 91.236C286.01 91.836 286.13 92.358 286.37 92.802C286.622 93.246 286.946 93.588 287.342 93.828C287.75 94.056 288.182 94.17 288.638 94.17C289.106 94.17 289.538 94.05 289.934 93.81C290.342 93.57 290.666 93.228 290.906 92.784C291.158 92.34 291.284 91.812 291.284 91.2ZM296.967 85.062C296.523 85.062 296.151 84.924 295.851 84.648C295.563 84.36 295.419 84.006 295.419 83.586C295.419 83.166 295.563 82.818 295.851 82.542C296.151 82.254 296.523 82.11 296.967 82.11C297.411 82.11 297.777 82.254 298.065 82.542C298.365 82.818 298.515 83.166 298.515 83.586C298.515 84.006 298.365 84.36 298.065 84.648C297.777 84.924 297.411 85.062 296.967 85.062ZM298.209 86.25V96.222H295.689V86.25H298.209ZM306.225 86.106C307.413 86.106 308.373 86.484 309.105 87.24C309.837 87.984 310.203 89.028 310.203 90.372V96.222H307.683V90.714C307.683 89.922 307.485 89.316 307.089 88.896C306.693 88.464 306.153 88.248 305.469 88.248C304.773 88.248 304.221 88.464 303.813 88.896C303.417 89.316 303.219 89.922 303.219 90.714V96.222H300.699V86.25H303.219V87.492C303.555 87.06 303.981 86.724 304.497 86.484C305.025 86.232 305.601 86.106 306.225 86.106ZM316.505 86.088C317.249 86.088 317.903 86.238 318.467 86.538C319.031 86.826 319.475 87.204 319.799 87.672V86.25H322.337V96.294C322.337 97.218 322.151 98.04 321.779 98.76C321.407 99.492 320.849 100.068 320.105 100.488C319.361 100.92 318.461 101.136 317.405 101.136C315.989 101.136 314.825 100.806 313.913 100.146C313.013 99.486 312.503 98.586 312.383 97.446H314.885C315.017 97.902 315.299 98.262 315.731 98.526C316.175 98.802 316.709 98.94 317.333 98.94C318.065 98.94 318.659 98.718 319.115 98.274C319.571 97.842 319.799 97.182 319.799 96.294V94.746C319.475 95.214 319.025 95.604 318.449 95.916C317.885 96.228 317.237 96.384 316.505 96.384C315.665 96.384 314.897 96.168 314.201 95.736C313.505 95.304 312.953 94.698 312.545 93.918C312.149 93.126 311.951 92.22 311.951 91.2C311.951 90.192 312.149 89.298 312.545 88.518C312.953 87.738 313.499 87.138 314.183 86.718C314.879 86.298 315.653 86.088 316.505 86.088ZM319.799 91.236C319.799 90.624 319.679 90.102 319.439 89.67C319.199 89.226 318.875 88.89 318.467 88.662C318.059 88.422 317.621 88.302 317.153 88.302C316.685 88.302 316.253 88.416 315.857 88.644C315.461 88.872 315.137 89.208 314.885 89.652C314.645 90.084 314.525 90.6 314.525 91.2C314.525 91.8 314.645 92.328 314.885 92.784C315.137 93.228 315.461 93.57 315.857 93.81C316.265 94.05 316.697 94.17 317.153 94.17C317.621 94.17 318.059 94.056 318.467 93.828C318.875 93.588 319.199 93.252 319.439 92.82C319.679 92.376 319.799 91.848 319.799 91.236Z" fill="#111827"/>
<path d="M205.502 121.32C204.597 121.32 203.771 121.11 203.024 120.69C202.277 120.261 201.685 119.668 201.246 118.912C200.817 118.147 200.602 117.288 200.602 116.336C200.602 115.384 200.817 114.53 201.246 113.774C201.685 113.009 202.277 112.416 203.024 111.996C203.771 111.567 204.597 111.352 205.502 111.352C206.417 111.352 207.247 111.567 207.994 111.996C208.741 112.416 209.329 113.004 209.758 113.76C210.187 114.516 210.402 115.375 210.402 116.336C210.402 117.297 210.187 118.156 209.758 118.912C209.329 119.668 208.741 120.261 207.994 120.69C207.247 121.11 206.417 121.32 205.502 121.32ZM205.502 120.214C206.183 120.214 206.795 120.055 207.336 119.738C207.887 119.421 208.316 118.968 208.624 118.38C208.941 117.792 209.1 117.111 209.1 116.336C209.1 115.552 208.941 114.871 208.624 114.292C208.316 113.704 207.891 113.251 207.35 112.934C206.809 112.617 206.193 112.458 205.502 112.458C204.811 112.458 204.195 112.617 203.654 112.934C203.113 113.251 202.683 113.704 202.366 114.292C202.058 114.871 201.904 115.552 201.904 116.336C201.904 117.111 202.058 117.792 202.366 118.38C202.683 118.968 203.113 119.421 203.654 119.738C204.205 120.055 204.821 120.214 205.502 120.214ZM215.822 113.41C216.755 113.41 217.511 113.695 218.09 114.264C218.669 114.824 218.958 115.636 218.958 116.7V121.222H217.698V116.882C217.698 116.117 217.507 115.533 217.124 115.132C216.741 114.721 216.219 114.516 215.556 114.516C214.884 114.516 214.347 114.726 213.946 115.146C213.554 115.566 213.358 116.177 213.358 116.98V121.222H212.084V113.55H213.358V114.642C213.61 114.25 213.951 113.947 214.38 113.732C214.819 113.517 215.299 113.41 215.822 113.41ZM228.117 121.348C227.399 121.348 226.745 121.185 226.157 120.858C225.579 120.531 225.121 120.069 224.785 119.472C224.459 118.865 224.295 118.165 224.295 117.372C224.295 116.588 224.463 115.897 224.799 115.3C225.145 114.693 225.611 114.231 226.199 113.914C226.787 113.587 227.445 113.424 228.173 113.424C228.901 113.424 229.559 113.587 230.147 113.914C230.735 114.231 231.197 114.689 231.533 115.286C231.879 115.883 232.051 116.579 232.051 117.372C232.051 118.165 231.874 118.865 231.519 119.472C231.174 120.069 230.703 120.531 230.105 120.858C229.508 121.185 228.845 121.348 228.117 121.348ZM228.117 120.228C228.575 120.228 229.004 120.121 229.405 119.906C229.807 119.691 230.129 119.369 230.371 118.94C230.623 118.511 230.749 117.988 230.749 117.372C230.749 116.756 230.628 116.233 230.385 115.804C230.143 115.375 229.825 115.057 229.433 114.852C229.041 114.637 228.617 114.53 228.159 114.53C227.693 114.53 227.263 114.637 226.871 114.852C226.489 115.057 226.181 115.375 225.947 115.804C225.714 116.233 225.597 116.756 225.597 117.372C225.597 117.997 225.709 118.525 225.933 118.954C226.167 119.383 226.475 119.705 226.857 119.92C227.24 120.125 227.66 120.228 228.117 120.228ZM235 114.796C235.224 114.357 235.542 114.017 235.952 113.774C236.372 113.531 236.881 113.41 237.478 113.41V114.726H237.142C235.714 114.726 235 115.501 235 117.05V121.222H233.726V113.55H235V114.796ZM238.473 117.358C238.473 116.574 238.632 115.888 238.949 115.3C239.266 114.703 239.7 114.241 240.251 113.914C240.811 113.587 241.436 113.424 242.127 113.424C242.724 113.424 243.28 113.564 243.793 113.844C244.306 114.115 244.698 114.474 244.969 114.922V110.862H246.257V121.222H244.969V119.78C244.717 120.237 244.344 120.615 243.849 120.914C243.354 121.203 242.776 121.348 242.113 121.348C241.432 121.348 240.811 121.18 240.251 120.844C239.7 120.508 239.266 120.037 238.949 119.43C238.632 118.823 238.473 118.133 238.473 117.358ZM244.969 117.372C244.969 116.793 244.852 116.289 244.619 115.86C244.386 115.431 244.068 115.104 243.667 114.88C243.275 114.647 242.841 114.53 242.365 114.53C241.889 114.53 241.455 114.642 241.063 114.866C240.671 115.09 240.358 115.417 240.125 115.846C239.892 116.275 239.775 116.779 239.775 117.358C239.775 117.946 239.892 118.459 240.125 118.898C240.358 119.327 240.671 119.659 241.063 119.892C241.455 120.116 241.889 120.228 242.365 120.228C242.841 120.228 243.275 120.116 243.667 119.892C244.068 119.659 244.386 119.327 244.619 118.898C244.852 118.459 244.969 117.951 244.969 117.372ZM255.41 117.092C255.41 117.335 255.396 117.591 255.368 117.862H249.236C249.283 118.618 249.539 119.211 250.006 119.64C250.482 120.06 251.056 120.27 251.728 120.27C252.279 120.27 252.736 120.144 253.1 119.892C253.473 119.631 253.735 119.285 253.884 118.856H255.256C255.051 119.593 254.64 120.195 254.024 120.662C253.408 121.119 252.643 121.348 251.728 121.348C251 121.348 250.347 121.185 249.768 120.858C249.199 120.531 248.751 120.069 248.424 119.472C248.097 118.865 247.934 118.165 247.934 117.372C247.934 116.579 248.093 115.883 248.41 115.286C248.727 114.689 249.171 114.231 249.74 113.914C250.319 113.587 250.981 113.424 251.728 113.424C252.456 113.424 253.1 113.583 253.66 113.9C254.22 114.217 254.649 114.656 254.948 115.216C255.256 115.767 255.41 116.392 255.41 117.092ZM254.094 116.826C254.094 116.341 253.987 115.925 253.772 115.58C253.557 115.225 253.263 114.959 252.89 114.782C252.526 114.595 252.12 114.502 251.672 114.502C251.028 114.502 250.477 114.707 250.02 115.118C249.572 115.529 249.315 116.098 249.25 116.826H254.094ZM258.366 114.796C258.59 114.357 258.907 114.017 259.318 113.774C259.738 113.531 260.246 113.41 260.844 113.41V114.726H260.508C259.08 114.726 258.366 115.501 258.366 117.05V121.222H257.092V113.55H258.366V114.796ZM265.03 121.348C264.442 121.348 263.915 121.25 263.448 121.054C262.982 120.849 262.613 120.569 262.342 120.214C262.072 119.85 261.922 119.435 261.894 118.968H263.21C263.248 119.351 263.425 119.663 263.742 119.906C264.069 120.149 264.494 120.27 265.016 120.27C265.502 120.27 265.884 120.163 266.164 119.948C266.444 119.733 266.584 119.463 266.584 119.136C266.584 118.8 266.435 118.553 266.136 118.394C265.838 118.226 265.376 118.063 264.75 117.904C264.181 117.755 263.714 117.605 263.35 117.456C262.996 117.297 262.688 117.069 262.426 116.77C262.174 116.462 262.048 116.061 262.048 115.566C262.048 115.174 262.165 114.815 262.398 114.488C262.632 114.161 262.963 113.905 263.392 113.718C263.822 113.522 264.312 113.424 264.862 113.424C265.712 113.424 266.398 113.639 266.92 114.068C267.443 114.497 267.723 115.085 267.76 115.832H266.486C266.458 115.431 266.295 115.109 265.996 114.866C265.707 114.623 265.315 114.502 264.82 114.502C264.363 114.502 263.999 114.6 263.728 114.796C263.458 114.992 263.322 115.249 263.322 115.566C263.322 115.818 263.402 116.028 263.56 116.196C263.728 116.355 263.934 116.485 264.176 116.588C264.428 116.681 264.774 116.789 265.212 116.91C265.763 117.059 266.211 117.209 266.556 117.358C266.902 117.498 267.196 117.713 267.438 118.002C267.69 118.291 267.821 118.669 267.83 119.136C267.83 119.556 267.714 119.934 267.48 120.27C267.247 120.606 266.916 120.872 266.486 121.068C266.066 121.255 265.581 121.348 265.03 121.348ZM276.707 121.348C275.989 121.348 275.335 121.185 274.747 120.858C274.169 120.531 273.711 120.069 273.375 119.472C273.049 118.865 272.885 118.165 272.885 117.372C272.885 116.588 273.053 115.897 273.389 115.3C273.735 114.693 274.201 114.231 274.789 113.914C275.377 113.587 276.035 113.424 276.763 113.424C277.491 113.424 278.149 113.587 278.737 113.914C279.325 114.231 279.787 114.689 280.123 115.286C280.469 115.883 280.641 116.579 280.641 117.372C280.641 118.165 280.464 118.865 280.109 119.472C279.764 120.069 279.293 120.531 278.695 120.858C278.098 121.185 277.435 121.348 276.707 121.348ZM276.707 120.228C277.165 120.228 277.594 120.121 277.995 119.906C278.397 119.691 278.719 119.369 278.961 118.94C279.213 118.511 279.339 117.988 279.339 117.372C279.339 116.756 279.218 116.233 278.975 115.804C278.733 115.375 278.415 115.057 278.023 114.852C277.631 114.637 277.207 114.53 276.749 114.53C276.283 114.53 275.853 114.637 275.461 114.852C275.079 115.057 274.771 115.375 274.537 115.804C274.304 116.233 274.187 116.756 274.187 117.372C274.187 117.997 274.299 118.525 274.523 118.954C274.757 119.383 275.065 119.705 275.447 119.92C275.83 120.125 276.25 120.228 276.707 120.228ZM285.172 120.046L287.552 113.55H288.91L285.9 121.222H284.416L281.406 113.55H282.778L285.172 120.046ZM297.164 117.092C297.164 117.335 297.15 117.591 297.122 117.862H290.99C291.037 118.618 291.293 119.211 291.76 119.64C292.236 120.06 292.81 120.27 293.482 120.27C294.033 120.27 294.49 120.144 294.854 119.892C295.227 119.631 295.489 119.285 295.638 118.856H297.01C296.805 119.593 296.394 120.195 295.778 120.662C295.162 121.119 294.397 121.348 293.482 121.348C292.754 121.348 292.101 121.185 291.522 120.858C290.953 120.531 290.505 120.069 290.178 119.472C289.851 118.865 289.688 118.165 289.688 117.372C289.688 116.579 289.847 115.883 290.164 115.286C290.481 114.689 290.925 114.231 291.494 113.914C292.073 113.587 292.735 113.424 293.482 113.424C294.21 113.424 294.854 113.583 295.414 113.9C295.974 114.217 296.403 114.656 296.702 115.216C297.01 115.767 297.164 116.392 297.164 117.092ZM295.848 116.826C295.848 116.341 295.741 115.925 295.526 115.58C295.311 115.225 295.017 114.959 294.644 114.782C294.28 114.595 293.874 114.502 293.426 114.502C292.782 114.502 292.231 114.707 291.774 115.118C291.326 115.529 291.069 116.098 291.004 116.826H295.848ZM300.12 114.796C300.344 114.357 300.661 114.017 301.072 113.774C301.492 113.531 302 113.41 302.598 113.41V114.726H302.262C300.834 114.726 300.12 115.501 300.12 117.05V121.222H298.846V113.55H300.12V114.796ZM314.101 118.548C314.101 118.996 313.989 119.425 313.765 119.836C313.541 120.237 313.209 120.573 312.771 120.844C312.341 121.115 311.823 121.269 311.217 121.306V122.44H310.461V121.306C309.611 121.231 308.921 120.961 308.389 120.494C307.857 120.018 307.586 119.416 307.577 118.688H308.935C308.972 119.08 309.117 119.421 309.369 119.71C309.63 119.999 309.994 120.181 310.461 120.256V116.756C309.835 116.597 309.331 116.434 308.949 116.266C308.566 116.098 308.239 115.837 307.969 115.482C307.698 115.127 307.563 114.651 307.563 114.054C307.563 113.298 307.824 112.673 308.347 112.178C308.879 111.683 309.583 111.408 310.461 111.352V110.19H311.217V111.352C312.01 111.417 312.649 111.674 313.135 112.122C313.62 112.561 313.9 113.135 313.975 113.844H312.617C312.57 113.517 312.425 113.223 312.183 112.962C311.94 112.691 311.618 112.514 311.217 112.43V115.846C311.833 116.005 312.332 116.168 312.715 116.336C313.107 116.495 313.433 116.751 313.695 117.106C313.965 117.461 314.101 117.941 314.101 118.548ZM308.865 113.984C308.865 114.441 309 114.791 309.271 115.034C309.541 115.277 309.938 115.477 310.461 115.636V112.402C309.975 112.449 309.588 112.607 309.299 112.878C309.009 113.139 308.865 113.508 308.865 113.984ZM311.217 120.27C311.721 120.214 312.113 120.032 312.393 119.724C312.682 119.416 312.827 119.047 312.827 118.618C312.827 118.161 312.687 117.811 312.407 117.568C312.127 117.316 311.73 117.115 311.217 116.966V120.27ZM322.754 112.206H317.84V115.398C318.054 115.099 318.372 114.857 318.792 114.67C319.212 114.474 319.664 114.376 320.15 114.376C320.924 114.376 321.554 114.539 322.04 114.866C322.525 115.183 322.87 115.599 323.076 116.112C323.29 116.616 323.398 117.153 323.398 117.722C323.398 118.394 323.272 118.996 323.02 119.528C322.768 120.06 322.38 120.48 321.858 120.788C321.344 121.096 320.705 121.25 319.94 121.25C318.96 121.25 318.166 120.998 317.56 120.494C316.953 119.99 316.584 119.318 316.454 118.478H317.7C317.821 119.01 318.078 119.425 318.47 119.724C318.862 120.023 319.356 120.172 319.954 120.172C320.691 120.172 321.246 119.953 321.62 119.514C321.993 119.066 322.18 118.478 322.18 117.75C322.18 117.022 321.993 116.462 321.62 116.07C321.246 115.669 320.696 115.468 319.968 115.468C319.473 115.468 319.039 115.589 318.666 115.832C318.302 116.065 318.036 116.387 317.868 116.798H316.664V111.086H322.754V112.206ZM325.091 116.056C325.091 114.451 325.352 113.2 325.875 112.304C326.397 111.399 327.312 110.946 328.619 110.946C329.916 110.946 330.826 111.399 331.349 112.304C331.871 113.2 332.133 114.451 332.133 116.056C332.133 117.689 331.871 118.959 331.349 119.864C330.826 120.769 329.916 121.222 328.619 121.222C327.312 121.222 326.397 120.769 325.875 119.864C325.352 118.959 325.091 117.689 325.091 116.056ZM330.873 116.056C330.873 115.244 330.817 114.558 330.705 113.998C330.602 113.429 330.383 112.971 330.047 112.626C329.72 112.281 329.244 112.108 328.619 112.108C327.984 112.108 327.499 112.281 327.163 112.626C326.836 112.971 326.617 113.429 326.505 113.998C326.402 114.558 326.351 115.244 326.351 116.056C326.351 116.896 326.402 117.601 326.505 118.17C326.617 118.739 326.836 119.197 327.163 119.542C327.499 119.887 327.984 120.06 328.619 120.06C329.244 120.06 329.72 119.887 330.047 119.542C330.383 119.197 330.602 118.739 330.705 118.17C330.817 117.601 330.873 116.896 330.873 116.056ZM334.498 121.306C334.255 121.306 334.05 121.222 333.882 121.054C333.714 120.886 333.63 120.681 333.63 120.438C333.63 120.195 333.714 119.99 333.882 119.822C334.05 119.654 334.255 119.57 334.498 119.57C334.731 119.57 334.927 119.654 335.086 119.822C335.254 119.99 335.338 120.195 335.338 120.438C335.338 120.681 335.254 120.886 335.086 121.054C334.927 121.222 334.731 121.306 334.498 121.306ZM336.821 116.056C336.821 114.451 337.082 113.2 337.605 112.304C338.128 111.399 339.042 110.946 340.349 110.946C341.646 110.946 342.556 111.399 343.079 112.304C343.602 113.2 343.863 114.451 343.863 116.056C343.863 117.689 343.602 118.959 343.079 119.864C342.556 120.769 341.646 121.222 340.349 121.222C339.042 121.222 338.128 120.769 337.605 119.864C337.082 118.959 336.821 117.689 336.821 116.056ZM342.603 116.056C342.603 115.244 342.547 114.558 342.435 113.998C342.332 113.429 342.113 112.971 341.777 112.626C341.45 112.281 340.974 112.108 340.349 112.108C339.714 112.108 339.229 112.281 338.893 112.626C338.566 112.971 338.347 113.429 338.235 113.998C338.132 114.558 338.081 115.244 338.081 116.056C338.081 116.896 338.132 117.601 338.235 118.17C338.347 118.739 338.566 119.197 338.893 119.542C339.229 119.887 339.714 120.06 340.349 120.06C340.974 120.06 341.45 119.887 341.777 119.542C342.113 119.197 342.332 118.739 342.435 118.17C342.547 117.601 342.603 116.896 342.603 116.056ZM345.612 116.056C345.612 114.451 345.873 113.2 346.396 112.304C346.919 111.399 347.833 110.946 349.14 110.946C350.437 110.946 351.347 111.399 351.87 112.304C352.393 113.2 352.654 114.451 352.654 116.056C352.654 117.689 352.393 118.959 351.87 119.864C351.347 120.769 350.437 121.222 349.14 121.222C347.833 121.222 346.919 120.769 346.396 119.864C345.873 118.959 345.612 117.689 345.612 116.056ZM351.394 116.056C351.394 115.244 351.338 114.558 351.226 113.998C351.123 113.429 350.904 112.971 350.568 112.626C350.241 112.281 349.765 112.108 349.14 112.108C348.505 112.108 348.02 112.281 347.684 112.626C347.357 112.971 347.138 113.429 347.026 113.998C346.923 114.558 346.872 115.244 346.872 116.056C346.872 116.896 346.923 117.601 347.026 118.17C347.138 118.739 347.357 119.197 347.684 119.542C348.02 119.887 348.505 120.06 349.14 120.06C349.765 120.06 350.241 119.887 350.568 119.542C350.904 119.197 351.123 118.739 351.226 118.17C351.338 117.601 351.394 116.896 351.394 116.056Z" fill="#4B5563"/>
<rect x="463.25" y="76" width="1" height="50.4441" fill="#E5E7EB"/>
<path d="M518.25 104.222C518.25 108.092 515.12 111.222 511.25 111.222L512.3 109.472" stroke="#111827" stroke-width="1.5" stroke-linecap="round" stroke-linejoin="round"/>
<path d="M498.25 98.222C498.25 94.352 501.38 91.222 505.25 91.222L504.2 92.972" stroke="#111827" stroke-width="1.5" stroke-linecap="round" stroke-linejoin="round"/>
<path d="M509.95 93.672L513.93 95.972L517.87 93.682" stroke="#111827" stroke-width="1.5" stroke-linecap="round" stroke-linejoin="round"/>
<path d="M513.93 100.042V95.962" stroke="#111827" stroke-width="1.5" stroke-linecap="round" stroke-linejoin="round"/>
<path d="M512.99 91.432L510.59 92.762C510.05 93.062 509.6 93.822 509.6 94.442V96.982C509.6 97.602 510.04 98.362 510.59 98.662L512.99 99.992C513.5 100.282 514.34 100.282 514.86 99.992L517.26 98.662C517.8 98.362 518.25 97.602 518.25 96.982V94.442C518.25 93.822 517.81 93.062 517.26 92.762L514.86 91.432C514.35 91.152 513.51 91.152 512.99 91.432Z" stroke="#111827" stroke-width="1.5" stroke-linecap="round" stroke-linejoin="round"/>
<path d="M498.6 104.672L502.57 106.972L506.52 104.682" stroke="#111827" stroke-width="1.5" stroke-linecap="round" stroke-linejoin="round"/>
<path d="M502.57 111.042V106.962" stroke="#111827" stroke-width="1.5" stroke-linecap="round" stroke-linejoin="round"/>
<path d="M501.64 102.432L499.24 103.762C498.7 104.062 498.25 104.822 498.25 105.442V107.982C498.25 108.602 498.69 109.362 499.24 109.662L501.64 110.992C502.15 111.282 502.99 111.282 503.51 110.992L505.91 109.662C506.45 109.362 506.9 108.602 506.9 107.982V105.442C506.9 104.822 506.46 104.062 505.91 103.762L503.51 102.432C502.99 102.152 502.15 102.152 501.64 102.432Z" stroke="#111827" stroke-width="1.5" stroke-linecap="round" stroke-linejoin="round"/>
<path d="M548.778 83.658L544.17 96.222H541.11L536.502 83.658H539.202L542.658 93.648L546.096 83.658H548.778ZM559.559 91.02C559.559 91.38 559.535 91.704 559.487 91.992H552.197C552.257 92.712 552.509 93.276 552.953 93.684C553.397 94.092 553.943 94.296 554.591 94.296C555.527 94.296 556.193 93.894 556.589 93.09H559.307C559.019 94.05 558.467 94.842 557.651 95.466C556.835 96.078 555.833 96.384 554.645 96.384C553.685 96.384 552.821 96.174 552.053 95.754C551.297 95.322 550.703 94.716 550.271 93.936C549.851 93.156 549.641 92.256 549.641 91.236C549.641 90.204 549.851 89.298 550.271 88.518C550.691 87.738 551.279 87.138 552.035 86.718C552.791 86.298 553.661 86.088 554.645 86.088C555.593 86.088 556.439 86.292 557.183 86.7C557.939 87.108 558.521 87.69 558.929 88.446C559.349 89.19 559.559 90.048 559.559 91.02ZM556.949 90.3C556.937 89.652 556.703 89.136 556.247 88.752C555.791 88.356 555.233 88.158 554.573 88.158C553.949 88.158 553.421 88.35 552.989 88.734C552.569 89.106 552.311 89.628 552.215 90.3H556.949ZM563.918 87.798C564.242 87.27 564.662 86.856 565.178 86.556C565.706 86.256 566.306 86.106 566.978 86.106V88.752H566.312C565.52 88.752 564.92 88.938 564.512 89.31C564.116 89.682 563.918 90.33 563.918 91.254V96.222H561.398V86.25H563.918V87.798ZM578.216 86.25L572.042 100.938H569.36L571.52 95.97L567.524 86.25H570.35L572.924 93.216L575.534 86.25H578.216ZM593.133 91.02C593.133 91.38 593.109 91.704 593.061 91.992H585.771C585.831 92.712 586.083 93.276 586.527 93.684C586.971 94.092 587.517 94.296 588.165 94.296C589.101 94.296 589.767 93.894 590.163 93.09H592.881C592.593 94.05 592.041 94.842 591.225 95.466C590.409 96.078 589.407 96.384 588.219 96.384C587.259 96.384 586.395 96.174 585.627 95.754C584.871 95.322 584.277 94.716 583.845 93.936C583.425 93.156 583.215 92.256 583.215 91.236C583.215 90.204 583.425 89.298 583.845 88.518C584.265 87.738 584.853 87.138 585.609 86.718C586.365 86.298 587.235 86.088 588.219 86.088C589.167 86.088 590.013 86.292 590.757 86.7C591.513 87.108 592.095 87.69 592.503 88.446C592.923 89.19 593.133 90.048 593.133 91.02ZM590.523 90.3C590.511 89.652 590.277 89.136 589.821 88.752C589.365 88.356 588.807 88.158 588.147 88.158C587.523 88.158 586.995 88.35 586.563 88.734C586.143 89.106 585.885 89.628 585.789 90.3H590.523ZM594.324 91.2C594.324 90.192 594.522 89.298 594.918 88.518C595.326 87.738 595.872 87.138 596.556 86.718C597.252 86.298 598.026 86.088 598.878 86.088C599.622 86.088 600.27 86.238 600.822 86.538C601.386 86.838 601.836 87.216 602.172 87.672V86.25H604.71V96.222H602.172V94.764C601.848 95.232 601.398 95.622 600.822 95.934C600.258 96.234 599.604 96.384 598.86 96.384C598.02 96.384 597.252 96.168 596.556 95.736C595.872 95.304 595.326 94.698 594.918 93.918C594.522 93.126 594.324 92.22 594.324 91.2ZM602.172 91.236C602.172 90.624 602.052 90.102 601.812 89.67C601.572 89.226 601.248 88.89 600.84 88.662C600.432 88.422 599.994 88.302 599.526 88.302C599.058 88.302 598.626 88.416 598.23 88.644C597.834 88.872 597.51 89.208 597.258 89.652C597.018 90.084 596.898 90.6 596.898 91.2C596.898 91.8 597.018 92.328 597.258 92.784C597.51 93.228 597.834 93.57 598.23 93.81C598.638 94.05 599.07 94.17 599.526 94.17C599.994 94.17 600.432 94.056 600.84 93.828C601.248 93.588 601.572 93.252 601.812 92.82C602.052 92.376 602.172 91.848 602.172 91.236ZM610.988 96.384C610.172 96.384 609.44 96.24 608.792 95.952C608.144 95.652 607.628 95.25 607.244 94.746C606.872 94.242 606.668 93.684 606.632 93.072H609.17C609.218 93.456 609.404 93.774 609.728 94.026C610.064 94.278 610.478 94.404 610.97 94.404C611.45 94.404 611.822 94.308 612.086 94.116C612.362 93.924 612.5 93.678 612.5 93.378C612.5 93.054 612.332 92.814 611.996 92.658C611.672 92.49 611.15 92.31 610.43 92.118C609.686 91.938 609.074 91.752 608.594 91.56C608.126 91.368 607.718 91.074 607.37 90.678C607.034 90.282 606.866 89.748 606.866 89.076C606.866 88.524 607.022 88.02 607.334 87.564C607.658 87.108 608.114 86.748 608.702 86.484C609.302 86.22 610.004 86.088 610.808 86.088C611.996 86.088 612.944 86.388 613.652 86.988C614.36 87.576 614.75 88.374 614.822 89.382H612.41C612.374 88.986 612.206 88.674 611.906 88.446C611.618 88.206 611.228 88.086 610.736 88.086C610.28 88.086 609.926 88.17 609.674 88.338C609.434 88.506 609.314 88.74 609.314 89.04C609.314 89.376 609.482 89.634 609.818 89.814C610.154 89.982 610.676 90.156 611.384 90.336C612.104 90.516 612.698 90.702 613.166 90.894C613.634 91.086 614.036 91.386 614.372 91.794C614.72 92.19 614.9 92.718 614.912 93.378C614.912 93.954 614.75 94.47 614.426 94.926C614.114 95.382 613.658 95.742 613.058 96.006C612.47 96.258 611.78 96.384 610.988 96.384ZM626.52 86.25L620.346 100.938H617.664L619.824 95.97L615.828 86.25H618.654L621.228 93.216L623.838 86.25H626.52ZM635.102 88.32V93.144C635.102 93.48 635.18 93.726 635.336 93.882C635.504 94.026 635.78 94.098 636.164 94.098H637.334V96.222H635.75C633.626 96.222 632.564 95.19 632.564 93.126V88.32H631.376V86.25H632.564V83.784H635.102V86.25H637.334V88.32H635.102ZM643.574 96.384C642.614 96.384 641.75 96.174 640.982 95.754C640.214 95.322 639.608 94.716 639.164 93.936C638.732 93.156 638.516 92.256 638.516 91.236C638.516 90.216 638.738 89.316 639.182 88.536C639.638 87.756 640.256 87.156 641.036 86.736C641.816 86.304 642.686 86.088 643.646 86.088C644.606 86.088 645.476 86.304 646.256 86.736C647.036 87.156 647.648 87.756 648.092 88.536C648.548 89.316 648.776 90.216 648.776 91.236C648.776 92.256 648.542 93.156 648.074 93.936C647.618 94.716 646.994 95.322 646.202 95.754C645.422 96.174 644.546 96.384 643.574 96.384ZM643.574 94.188C644.03 94.188 644.456 94.08 644.852 93.864C645.26 93.636 645.584 93.3 645.824 92.856C646.064 92.412 646.184 91.872 646.184 91.236C646.184 90.288 645.932 89.562 645.428 89.058C644.936 88.542 644.33 88.284 643.61 88.284C642.89 88.284 642.284 88.542 641.792 89.058C641.312 89.562 641.072 90.288 641.072 91.236C641.072 92.184 641.306 92.916 641.774 93.432C642.254 93.936 642.854 94.188 643.574 94.188ZM657.434 87.798C657.758 87.27 658.178 86.856 658.694 86.556C659.222 86.256 659.822 86.106 660.494 86.106V88.752H659.828C659.036 88.752 658.436 88.938 658.028 89.31C657.632 89.682 657.434 90.33 657.434 91.254V96.222H654.914V86.25H657.434V87.798ZM671.461 91.02C671.461 91.38 671.437 91.704 671.389 91.992H664.099C664.159 92.712 664.411 93.276 664.855 93.684C665.299 94.092 665.845 94.296 666.493 94.296C667.429 94.296 668.095 93.894 668.491 93.09H671.209C670.921 94.05 670.369 94.842 669.553 95.466C668.737 96.078 667.735 96.384 666.547 96.384C665.587 96.384 664.723 96.174 663.955 95.754C663.199 95.322 662.605 94.716 662.173 93.936C661.753 93.156 661.543 92.256 661.543 91.236C661.543 90.204 661.753 89.298 662.173 88.518C662.593 87.738 663.181 87.138 663.937 86.718C664.693 86.298 665.563 86.088 666.547 86.088C667.495 86.088 668.341 86.292 669.085 86.7C669.841 87.108 670.423 87.69 670.831 88.446C671.251 89.19 671.461 90.048 671.461 91.02ZM668.851 90.3C668.839 89.652 668.605 89.136 668.149 88.752C667.693 88.356 667.135 88.158 666.475 88.158C665.851 88.158 665.323 88.35 664.891 88.734C664.471 89.106 664.213 89.628 664.117 90.3H668.851ZM676.235 88.32V93.144C676.235 93.48 676.313 93.726 676.469 93.882C676.637 94.026 676.913 94.098 677.297 94.098H678.467V96.222H676.883C674.759 96.222 673.697 95.19 673.697 93.126V88.32H672.509V86.25H673.697V83.784H676.235V86.25H678.467V88.32H676.235ZM689.693 86.25V96.222H687.155V94.962C686.831 95.394 686.405 95.736 685.877 95.988C685.361 96.228 684.797 96.348 684.185 96.348C683.405 96.348 682.715 96.186 682.115 95.862C681.515 95.526 681.041 95.04 680.693 94.404C680.357 93.756 680.189 92.988 680.189 92.1V86.25H682.709V91.74C682.709 92.532 682.907 93.144 683.303 93.576C683.699 93.996 684.239 94.206 684.923 94.206C685.619 94.206 686.165 93.996 686.561 93.576C686.957 93.144 687.155 92.532 687.155 91.74V86.25H689.693ZM694.7 87.798C695.024 87.27 695.444 86.856 695.96 86.556C696.488 86.256 697.088 86.106 697.76 86.106V88.752H697.094C696.302 88.752 695.702 88.938 695.294 89.31C694.898 89.682 694.7 90.33 694.7 91.254V96.222H692.18V86.25H694.7V87.798ZM704.983 86.106C706.171 86.106 707.131 86.484 707.863 87.24C708.595 87.984 708.961 89.028 708.961 90.372V96.222H706.441V90.714C706.441 89.922 706.243 89.316 705.847 88.896C705.451 88.464 704.911 88.248 704.227 88.248C703.531 88.248 702.979 88.464 702.571 88.896C702.175 89.316 701.977 89.922 701.977 90.714V96.222H699.457V86.25H701.977V87.492C702.313 87.06 702.739 86.724 703.255 86.484C703.783 86.232 704.359 86.106 704.983 86.106Z" fill="#111827"/>
<path d="M542.242 111.464V118.674C542.242 119.477 541.995 120.121 541.5 120.606C541.005 121.082 540.352 121.32 539.54 121.32C538.719 121.32 538.061 121.077 537.566 120.592C537.071 120.097 536.824 119.425 536.824 118.576H538.098C538.107 119.052 538.229 119.439 538.462 119.738C538.705 120.037 539.064 120.186 539.54 120.186C540.016 120.186 540.371 120.046 540.604 119.766C540.837 119.477 540.954 119.113 540.954 118.674V111.464H542.242ZM551.556 113.55V121.222H550.282V120.088C550.039 120.48 549.698 120.788 549.26 121.012C548.83 121.227 548.354 121.334 547.832 121.334C547.234 121.334 546.698 121.213 546.222 120.97C545.746 120.718 545.368 120.345 545.088 119.85C544.817 119.355 544.682 118.753 544.682 118.044V113.55H545.942V117.876C545.942 118.632 546.133 119.215 546.516 119.626C546.898 120.027 547.421 120.228 548.084 120.228C548.765 120.228 549.302 120.018 549.694 119.598C550.086 119.178 550.282 118.567 550.282 117.764V113.55H551.556ZM556.423 121.348C555.835 121.348 555.308 121.25 554.841 121.054C554.374 120.849 554.006 120.569 553.735 120.214C553.464 119.85 553.315 119.435 553.287 118.968H554.603C554.64 119.351 554.818 119.663 555.135 119.906C555.462 120.149 555.886 120.27 556.409 120.27C556.894 120.27 557.277 120.163 557.557 119.948C557.837 119.733 557.977 119.463 557.977 119.136C557.977 118.8 557.828 118.553 557.529 118.394C557.23 118.226 556.768 118.063 556.143 117.904C555.574 117.755 555.107 117.605 554.743 117.456C554.388 117.297 554.08 117.069 553.819 116.77C553.567 116.462 553.441 116.061 553.441 115.566C553.441 115.174 553.558 114.815 553.791 114.488C554.024 114.161 554.356 113.905 554.785 113.718C555.214 113.522 555.704 113.424 556.255 113.424C557.104 113.424 557.79 113.639 558.313 114.068C558.836 114.497 559.116 115.085 559.153 115.832H557.879C557.851 115.431 557.688 115.109 557.389 114.866C557.1 114.623 556.708 114.502 556.213 114.502C555.756 114.502 555.392 114.6 555.121 114.796C554.85 114.992 554.715 115.249 554.715 115.566C554.715 115.818 554.794 116.028 554.953 116.196C555.121 116.355 555.326 116.485 555.569 116.588C555.821 116.681 556.166 116.789 556.605 116.91C557.156 117.059 557.604 117.209 557.949 117.358C558.294 117.498 558.588 117.713 558.831 118.002C559.083 118.291 559.214 118.669 559.223 119.136C559.223 119.556 559.106 119.934 558.873 120.27C558.64 120.606 558.308 120.872 557.879 121.068C557.459 121.255 556.974 121.348 556.423 121.348ZM562.575 114.6V119.122C562.575 119.495 562.655 119.761 562.813 119.92C562.972 120.069 563.247 120.144 563.639 120.144H564.577V121.222H563.429C562.72 121.222 562.188 121.059 561.833 120.732C561.479 120.405 561.301 119.869 561.301 119.122V114.6H560.307V113.55H561.301V111.618H562.575V113.55H564.577V114.6H562.575ZM571.127 114.964C571.379 114.525 571.753 114.161 572.247 113.872C572.751 113.573 573.335 113.424 573.997 113.424C574.679 113.424 575.295 113.587 575.845 113.914C576.405 114.241 576.844 114.703 577.161 115.3C577.479 115.888 577.637 116.574 577.637 117.358C577.637 118.133 577.479 118.823 577.161 119.43C576.844 120.037 576.405 120.508 575.845 120.844C575.295 121.18 574.679 121.348 573.997 121.348C573.344 121.348 572.765 121.203 572.261 120.914C571.767 120.615 571.389 120.247 571.127 119.808V124.862H569.853V113.55H571.127V114.964ZM576.335 117.358C576.335 116.779 576.219 116.275 575.985 115.846C575.752 115.417 575.435 115.09 575.033 114.866C574.641 114.642 574.207 114.53 573.731 114.53C573.265 114.53 572.831 114.647 572.429 114.88C572.037 115.104 571.72 115.435 571.477 115.874C571.244 116.303 571.127 116.803 571.127 117.372C571.127 117.951 571.244 118.459 571.477 118.898C571.72 119.327 572.037 119.659 572.429 119.892C572.831 120.116 573.265 120.228 573.731 120.228C574.207 120.228 574.641 120.116 575.033 119.892C575.435 119.659 575.752 119.327 575.985 118.898C576.219 118.459 576.335 117.946 576.335 117.358ZM583.122 113.41C583.701 113.41 584.224 113.536 584.69 113.788C585.157 114.031 585.521 114.399 585.782 114.894C586.053 115.389 586.188 115.991 586.188 116.7V121.222H584.928V116.882C584.928 116.117 584.737 115.533 584.354 115.132C583.972 114.721 583.449 114.516 582.786 114.516C582.114 114.516 581.578 114.726 581.176 115.146C580.784 115.566 580.588 116.177 580.588 116.98V121.222H579.314V110.862H580.588V114.642C580.84 114.25 581.186 113.947 581.624 113.732C582.072 113.517 582.572 113.41 583.122 113.41ZM591.615 121.348C590.897 121.348 590.243 121.185 589.655 120.858C589.077 120.531 588.619 120.069 588.283 119.472C587.957 118.865 587.793 118.165 587.793 117.372C587.793 116.588 587.961 115.897 588.297 115.3C588.643 114.693 589.109 114.231 589.697 113.914C590.285 113.587 590.943 113.424 591.671 113.424C592.399 113.424 593.057 113.587 593.645 113.914C594.233 114.231 594.695 114.689 595.031 115.286C595.377 115.883 595.549 116.579 595.549 117.372C595.549 118.165 595.372 118.865 595.017 119.472C594.672 120.069 594.201 120.531 593.603 120.858C593.006 121.185 592.343 121.348 591.615 121.348ZM591.615 120.228C592.073 120.228 592.502 120.121 592.903 119.906C593.305 119.691 593.627 119.369 593.869 118.94C594.121 118.511 594.247 117.988 594.247 117.372C594.247 116.756 594.126 116.233 593.883 115.804C593.641 115.375 593.323 115.057 592.931 114.852C592.539 114.637 592.115 114.53 591.657 114.53C591.191 114.53 590.761 114.637 590.369 114.852C589.987 115.057 589.679 115.375 589.445 115.804C589.212 116.233 589.095 116.756 589.095 117.372C589.095 117.997 589.207 118.525 589.431 118.954C589.665 119.383 589.973 119.705 590.355 119.92C590.738 120.125 591.158 120.228 591.615 120.228ZM600.962 113.41C601.896 113.41 602.652 113.695 603.23 114.264C603.809 114.824 604.098 115.636 604.098 116.7V121.222H602.838V116.882C602.838 116.117 602.647 115.533 602.264 115.132C601.882 114.721 601.359 114.516 600.696 114.516C600.024 114.516 599.488 114.726 599.086 115.146C598.694 115.566 598.498 116.177 598.498 116.98V121.222H597.224V113.55H598.498V114.642C598.75 114.25 599.091 113.947 599.52 113.732C599.959 113.517 600.44 113.41 600.962 113.41ZM613.18 117.092C613.18 117.335 613.166 117.591 613.138 117.862H607.006C607.052 118.618 607.309 119.211 607.776 119.64C608.252 120.06 608.826 120.27 609.498 120.27C610.048 120.27 610.506 120.144 610.87 119.892C611.243 119.631 611.504 119.285 611.654 118.856H613.026C612.82 119.593 612.41 120.195 611.794 120.662C611.178 121.119 610.412 121.348 609.498 121.348C608.77 121.348 608.116 121.185 607.538 120.858C606.968 120.531 606.52 120.069 606.194 119.472C605.867 118.865 605.704 118.165 605.704 117.372C605.704 116.579 605.862 115.883 606.18 115.286C606.497 114.689 606.94 114.231 607.51 113.914C608.088 113.587 608.751 113.424 609.498 113.424C610.226 113.424 610.87 113.583 611.43 113.9C611.99 114.217 612.419 114.656 612.718 115.216C613.026 115.767 613.18 116.392 613.18 117.092ZM611.864 116.826C611.864 116.341 611.756 115.925 611.542 115.58C611.327 115.225 611.033 114.959 610.66 114.782C610.296 114.595 609.89 114.502 609.442 114.502C608.798 114.502 608.247 114.707 607.79 115.118C607.342 115.529 607.085 116.098 607.02 116.826H611.864ZM622.332 113.41C623.265 113.41 624.021 113.695 624.6 114.264C625.178 114.824 625.468 115.636 625.468 116.7V121.222H624.208V116.882C624.208 116.117 624.016 115.533 623.634 115.132C623.251 114.721 622.728 114.516 622.066 114.516C621.394 114.516 620.857 114.726 620.456 115.146C620.064 115.566 619.868 116.177 619.868 116.98V121.222H618.594V113.55H619.868V114.642C620.12 114.25 620.46 113.947 620.89 113.732C621.328 113.517 621.809 113.41 622.332 113.41ZM634.353 113.55V121.222H633.079V120.088C632.836 120.48 632.495 120.788 632.057 121.012C631.627 121.227 631.151 121.334 630.629 121.334C630.031 121.334 629.495 121.213 629.019 120.97C628.543 120.718 628.165 120.345 627.885 119.85C627.614 119.355 627.479 118.753 627.479 118.044V113.55H628.739V117.876C628.739 118.632 628.93 119.215 629.313 119.626C629.695 120.027 630.218 120.228 630.881 120.228C631.562 120.228 632.099 120.018 632.491 119.598C632.883 119.178 633.079 118.567 633.079 117.764V113.55H634.353ZM645.73 113.41C646.327 113.41 646.859 113.536 647.326 113.788C647.792 114.031 648.161 114.399 648.432 114.894C648.702 115.389 648.838 115.991 648.838 116.7V121.222H647.578V116.882C647.578 116.117 647.386 115.533 647.004 115.132C646.63 114.721 646.122 114.516 645.478 114.516C644.815 114.516 644.288 114.731 643.896 115.16C643.504 115.58 643.308 116.191 643.308 116.994V121.222H642.048V116.882C642.048 116.117 641.856 115.533 641.474 115.132C641.1 114.721 640.592 114.516 639.948 114.516C639.285 114.516 638.758 114.731 638.366 115.16C637.974 115.58 637.778 116.191 637.778 116.994V121.222H636.504V113.55H637.778V114.656C638.03 114.255 638.366 113.947 638.786 113.732C639.215 113.517 639.686 113.41 640.2 113.41C640.844 113.41 641.413 113.555 641.908 113.844C642.402 114.133 642.771 114.558 643.014 115.118C643.228 114.577 643.583 114.157 644.078 113.858C644.572 113.559 645.123 113.41 645.73 113.41ZM652.202 114.978C652.463 114.521 652.846 114.147 653.35 113.858C653.854 113.569 654.428 113.424 655.072 113.424C655.762 113.424 656.383 113.587 656.934 113.914C657.484 114.241 657.918 114.703 658.236 115.3C658.553 115.888 658.712 116.574 658.712 117.358C658.712 118.133 658.553 118.823 658.236 119.43C657.918 120.037 657.48 120.508 656.92 120.844C656.369 121.18 655.753 121.348 655.072 121.348C654.409 121.348 653.826 121.203 653.322 120.914C652.827 120.625 652.454 120.256 652.202 119.808V121.222H650.928V110.862H652.202V114.978ZM657.41 117.358C657.41 116.779 657.293 116.275 657.06 115.846C656.826 115.417 656.509 115.09 656.108 114.866C655.716 114.642 655.282 114.53 654.806 114.53C654.339 114.53 653.905 114.647 653.504 114.88C653.112 115.104 652.794 115.435 652.552 115.874C652.318 116.303 652.202 116.803 652.202 117.372C652.202 117.951 652.318 118.459 652.552 118.898C652.794 119.327 653.112 119.659 653.504 119.892C653.905 120.116 654.339 120.228 654.806 120.228C655.282 120.228 655.716 120.116 656.108 119.892C656.509 119.659 656.826 119.327 657.06 118.898C657.293 118.459 657.41 117.946 657.41 117.358ZM667.389 117.092C667.389 117.335 667.375 117.591 667.347 117.862H661.215C661.261 118.618 661.518 119.211 661.985 119.64C662.461 120.06 663.035 120.27 663.707 120.27C664.257 120.27 664.715 120.144 665.079 119.892C665.452 119.631 665.713 119.285 665.863 118.856H667.235C667.029 119.593 666.619 120.195 666.003 120.662C665.387 121.119 664.621 121.348 663.707 121.348C662.979 121.348 662.325 121.185 661.747 120.858C661.177 120.531 660.729 120.069 660.403 119.472C660.076 118.865 659.913 118.165 659.913 117.372C659.913 116.579 660.071 115.883 660.389 115.286C660.706 114.689 661.149 114.231 661.719 113.914C662.297 113.587 662.96 113.424 663.707 113.424C664.435 113.424 665.079 113.583 665.639 113.9C666.199 114.217 666.628 114.656 666.927 115.216C667.235 115.767 667.389 116.392 667.389 117.092ZM666.073 116.826C666.073 116.341 665.965 115.925 665.751 115.58C665.536 115.225 665.242 114.959 664.869 114.782C664.505 114.595 664.099 114.502 663.651 114.502C663.007 114.502 662.456 114.707 661.999 115.118C661.551 115.529 661.294 116.098 661.229 116.826H666.073ZM670.344 114.796C670.568 114.357 670.886 114.017 671.296 113.774C671.716 113.531 672.225 113.41 672.822 113.41V114.726H672.486C671.058 114.726 670.344 115.501 670.344 117.05V121.222H669.07V113.55H670.344V114.796Z" fill="#4B5563"/>
<rect x="767.5" y="76" width="1" height="50.4441" fill="#E5E7EB"/>
<path d="M812.5 111.222C818.023 111.222 822.5 106.745 822.5 101.222C822.5 95.6992 818.023 91.222 812.5 91.222C806.977 91.222 802.5 95.6992 802.5 101.222C802.5 106.745 806.977 111.222 812.5 111.222Z" stroke="#111827" stroke-width="1.5" stroke-linecap="round" stroke-linejoin="round"/>
<path d="M808.5 92.222H809.5C807.55 98.062 807.55 104.382 809.5 110.222H808.5" stroke="#111827" stroke-width="1.5" stroke-linecap="round" stroke-linejoin="round"/>
<path d="M815.5 92.222C817.45 98.062 817.45 104.382 815.5 110.222" stroke="#111827" stroke-width="1.5" stroke-linecap="round" stroke-linejoin="round"/>
<path d="M803.5 105.222V104.222C809.34 106.172 815.66 106.172 821.5 104.222V105.222" stroke="#111827" stroke-width="1.5" stroke-linecap="round" stroke-linejoin="round"/>
<path d="M803.5 98.2221C809.34 96.2721 815.66 96.2721 821.5 98.2221" stroke="#111827" stroke-width="1.5" stroke-linecap="round" stroke-linejoin="round"/>
<path d="M858.536 83.658L855.026 96.222H852.056L849.698 87.276L847.232 96.222L844.28 96.24L840.896 83.658H843.596L845.81 93.414L848.366 83.658H851.174L853.586 93.36L855.818 83.658H858.536ZM864.609 96.384C863.649 96.384 862.785 96.174 862.017 95.754C861.249 95.322 860.643 94.716 860.199 93.936C859.767 93.156 859.551 92.256 859.551 91.236C859.551 90.216 859.773 89.316 860.217 88.536C860.673 87.756 861.291 87.156 862.071 86.736C862.851 86.304 863.721 86.088 864.681 86.088C865.641 86.088 866.511 86.304 867.291 86.736C868.071 87.156 868.683 87.756 869.127 88.536C869.583 89.316 869.811 90.216 869.811 91.236C869.811 92.256 869.577 93.156 869.109 93.936C868.653 94.716 868.029 95.322 867.237 95.754C866.457 96.174 865.581 96.384 864.609 96.384ZM864.609 94.188C865.065 94.188 865.491 94.08 865.887 93.864C866.295 93.636 866.619 93.3 866.859 92.856C867.099 92.412 867.219 91.872 867.219 91.236C867.219 90.288 866.967 89.562 866.463 89.058C865.971 88.542 865.365 88.284 864.645 88.284C863.925 88.284 863.319 88.542 862.827 89.058C862.347 89.562 862.107 90.288 862.107 91.236C862.107 92.184 862.341 92.916 862.809 93.432C863.289 93.936 863.889 94.188 864.609 94.188ZM874.18 87.798C874.504 87.27 874.924 86.856 875.44 86.556C875.968 86.256 876.568 86.106 877.24 86.106V88.752H876.574C875.782 88.752 875.182 88.938 874.774 89.31C874.378 89.682 874.18 90.33 874.18 91.254V96.222H871.66V86.25H874.18V87.798ZM881.457 82.902V96.222H878.937V82.902H881.457ZM883.299 91.2C883.299 90.192 883.497 89.298 883.893 88.518C884.301 87.738 884.853 87.138 885.549 86.718C886.245 86.298 887.019 86.088 887.871 86.088C888.519 86.088 889.137 86.232 889.725 86.52C890.313 86.796 890.781 87.168 891.129 87.636V82.902H893.685V96.222H891.129V94.746C890.817 95.238 890.379 95.634 889.815 95.934C889.251 96.234 888.597 96.384 887.853 96.384C887.013 96.384 886.245 96.168 885.549 95.736C884.853 95.304 884.301 94.698 883.893 93.918C883.497 93.126 883.299 92.22 883.299 91.2ZM891.147 91.236C891.147 90.624 891.027 90.102 890.787 89.67C890.547 89.226 890.223 88.89 889.815 88.662C889.407 88.422 888.969 88.302 888.501 88.302C888.033 88.302 887.601 88.416 887.205 88.644C886.809 88.872 886.485 89.208 886.233 89.652C885.993 90.084 885.873 90.6 885.873 91.2C885.873 91.8 885.993 92.328 886.233 92.784C886.485 93.228 886.809 93.57 887.205 93.81C887.613 94.05 888.045 94.17 888.501 94.17C888.969 94.17 889.407 94.056 889.815 93.828C890.223 93.588 890.547 93.252 890.787 92.82C891.027 92.376 891.147 91.848 891.147 91.236ZM909.97 86.25L907.054 96.222H904.336L902.518 89.256L900.7 96.222H897.964L895.03 86.25H897.586L899.35 93.846L901.258 86.25H903.922L905.794 93.828L907.558 86.25H909.97ZM912.612 85.062C912.168 85.062 911.796 84.924 911.496 84.648C911.208 84.36 911.064 84.006 911.064 83.586C911.064 83.166 911.208 82.818 911.496 82.542C911.796 82.254 912.168 82.11 912.612 82.11C913.056 82.11 913.422 82.254 913.71 82.542C914.01 82.818 914.16 83.166 914.16 83.586C914.16 84.006 914.01 84.36 913.71 84.648C913.422 84.924 913.056 85.062 912.612 85.062ZM913.854 86.25V96.222H911.334V86.25H913.854ZM915.696 91.2C915.696 90.192 915.894 89.298 916.29 88.518C916.698 87.738 917.25 87.138 917.946 86.718C918.642 86.298 919.416 86.088 920.268 86.088C920.916 86.088 921.534 86.232 922.122 86.52C922.71 86.796 923.178 87.168 923.526 87.636V82.902H926.082V96.222H923.526V94.746C923.214 95.238 922.776 95.634 922.212 95.934C921.648 96.234 920.994 96.384 920.25 96.384C919.41 96.384 918.642 96.168 917.946 95.736C917.25 95.304 916.698 94.698 916.29 93.918C915.894 93.126 915.696 92.22 915.696 91.2ZM923.544 91.236C923.544 90.624 923.424 90.102 923.184 89.67C922.944 89.226 922.62 88.89 922.212 88.662C921.804 88.422 921.366 88.302 920.898 88.302C920.43 88.302 919.998 88.416 919.602 88.644C919.206 88.872 918.882 89.208 918.63 89.652C918.39 90.084 918.27 90.6 918.27 91.2C918.27 91.8 918.39 92.328 918.63 92.784C918.882 93.228 919.206 93.57 919.602 93.81C920.01 94.05 920.442 94.17 920.898 94.17C921.366 94.17 921.804 94.056 922.212 93.828C922.62 93.588 922.944 93.252 923.184 92.82C923.424 92.376 923.544 91.848 923.544 91.236ZM937.813 91.02C937.813 91.38 937.789 91.704 937.741 91.992H930.451C930.511 92.712 930.763 93.276 931.207 93.684C931.651 94.092 932.197 94.296 932.845 94.296C933.781 94.296 934.447 93.894 934.843 93.09H937.561C937.273 94.05 936.721 94.842 935.905 95.466C935.089 96.078 934.087 96.384 932.899 96.384C931.939 96.384 931.075 96.174 930.307 95.754C929.551 95.322 928.957 94.716 928.525 93.936C928.105 93.156 927.895 92.256 927.895 91.236C927.895 90.204 928.105 89.298 928.525 88.518C928.945 87.738 929.533 87.138 930.289 86.718C931.045 86.298 931.915 86.088 932.899 86.088C933.847 86.088 934.693 86.292 935.437 86.7C936.193 87.108 936.775 87.69 937.183 88.446C937.603 89.19 937.813 90.048 937.813 91.02ZM935.203 90.3C935.191 89.652 934.957 89.136 934.501 88.752C934.045 88.356 933.487 88.158 932.827 88.158C932.203 88.158 931.675 88.35 931.243 88.734C930.823 89.106 930.565 89.628 930.469 90.3H935.203ZM943.293 91.2C943.293 90.192 943.491 89.298 943.887 88.518C944.295 87.738 944.847 87.138 945.543 86.718C946.239 86.298 947.013 86.088 947.865 86.088C948.513 86.088 949.131 86.232 949.719 86.52C950.307 86.796 950.775 87.168 951.123 87.636V82.902H953.679V96.222H951.123V94.746C950.811 95.238 950.373 95.634 949.809 95.934C949.245 96.234 948.591 96.384 947.847 96.384C947.007 96.384 946.239 96.168 945.543 95.736C944.847 95.304 944.295 94.698 943.887 93.918C943.491 93.126 943.293 92.22 943.293 91.2ZM951.141 91.236C951.141 90.624 951.021 90.102 950.781 89.67C950.541 89.226 950.217 88.89 949.809 88.662C949.401 88.422 948.963 88.302 948.495 88.302C948.027 88.302 947.595 88.416 947.199 88.644C946.803 88.872 946.479 89.208 946.227 89.652C945.987 90.084 945.867 90.6 945.867 91.2C945.867 91.8 945.987 92.328 946.227 92.784C946.479 93.228 946.803 93.57 947.199 93.81C947.607 94.05 948.039 94.17 948.495 94.17C948.963 94.17 949.401 94.056 949.809 93.828C950.217 93.588 950.541 93.252 950.781 92.82C951.021 92.376 951.141 91.848 951.141 91.236ZM965.41 91.02C965.41 91.38 965.386 91.704 965.338 91.992H958.048C958.108 92.712 958.36 93.276 958.804 93.684C959.248 94.092 959.794 94.296 960.442 94.296C961.378 94.296 962.044 93.894 962.44 93.09H965.158C964.87 94.05 964.318 94.842 963.502 95.466C962.686 96.078 961.684 96.384 960.496 96.384C959.536 96.384 958.672 96.174 957.904 95.754C957.148 95.322 956.554 94.716 956.122 93.936C955.702 93.156 955.492 92.256 955.492 91.236C955.492 90.204 955.702 89.298 956.122 88.518C956.542 87.738 957.13 87.138 957.886 86.718C958.642 86.298 959.512 86.088 960.496 86.088C961.444 86.088 962.29 86.292 963.034 86.7C963.79 87.108 964.372 87.69 964.78 88.446C965.2 89.19 965.41 90.048 965.41 91.02ZM962.8 90.3C962.788 89.652 962.554 89.136 962.098 88.752C961.642 88.356 961.084 88.158 960.424 88.158C959.8 88.158 959.272 88.35 958.84 88.734C958.42 89.106 958.162 89.628 958.066 90.3H962.8ZM969.77 82.902V96.222H967.25V82.902H969.77ZM973.538 85.062C973.094 85.062 972.722 84.924 972.422 84.648C972.134 84.36 971.99 84.006 971.99 83.586C971.99 83.166 972.134 82.818 972.422 82.542C972.722 82.254 973.094 82.11 973.538 82.11C973.982 82.11 974.348 82.254 974.636 82.542C974.936 82.818 975.086 83.166 975.086 83.586C975.086 84.006 974.936 84.36 974.636 84.648C974.348 84.924 973.982 85.062 973.538 85.062ZM974.78 86.25V96.222H972.26V86.25H974.78ZM981.427 93.9L983.947 86.25H986.629L982.939 96.222H979.879L976.207 86.25H978.907L981.427 93.9ZM997.315 91.02C997.315 91.38 997.291 91.704 997.243 91.992H989.953C990.013 92.712 990.265 93.276 990.709 93.684C991.153 94.092 991.699 94.296 992.347 94.296C993.283 94.296 993.949 93.894 994.345 93.09H997.063C996.775 94.05 996.223 94.842 995.407 95.466C994.591 96.078 993.589 96.384 992.401 96.384C991.441 96.384 990.577 96.174 989.809 95.754C989.053 95.322 988.459 94.716 988.027 93.936C987.607 93.156 987.397 92.256 987.397 91.236C987.397 90.204 987.607 89.298 988.027 88.518C988.447 87.738 989.035 87.138 989.791 86.718C990.547 86.298 991.417 86.088 992.401 86.088C993.349 86.088 994.195 86.292 994.939 86.7C995.695 87.108 996.277 87.69 996.685 88.446C997.105 89.19 997.315 90.048 997.315 91.02ZM994.705 90.3C994.693 89.652 994.459 89.136 994.003 88.752C993.547 88.356 992.989 88.158 992.329 88.158C991.705 88.158 991.177 88.35 990.745 88.734C990.325 89.106 990.067 89.628 989.971 90.3H994.705ZM1001.67 87.798C1002 87.27 1002.42 86.856 1002.93 86.556C1003.46 86.256 1004.06 86.106 1004.73 86.106V88.752H1004.07C1003.28 88.752 1002.68 88.938 1002.27 89.31C1001.87 89.682 1001.67 90.33 1001.67 91.254V96.222H999.154V86.25H1001.67V87.798ZM1015.97 86.25L1009.8 100.938H1007.12L1009.28 95.97L1005.28 86.25H1008.11L1010.68 93.216L1013.29 86.25H1015.97Z" fill="#111827"/>
<path d="M847.094 111.464V112.5H842.852V115.79H846.296V116.826H842.852V121.222H841.578V111.464H847.094ZM848.157 117.358C848.157 116.574 848.315 115.888 848.633 115.3C848.95 114.703 849.384 114.241 849.935 113.914C850.495 113.587 851.115 113.424 851.797 113.424C852.469 113.424 853.052 113.569 853.547 113.858C854.041 114.147 854.41 114.511 854.653 114.95V113.55H855.941V121.222H854.653V119.794C854.401 120.242 854.023 120.615 853.519 120.914C853.024 121.203 852.445 121.348 851.783 121.348C851.101 121.348 850.485 121.18 849.935 120.844C849.384 120.508 848.95 120.037 848.633 119.43C848.315 118.823 848.157 118.133 848.157 117.358ZM854.653 117.372C854.653 116.793 854.536 116.289 854.303 115.86C854.069 115.431 853.752 115.104 853.351 114.88C852.959 114.647 852.525 114.53 852.049 114.53C851.573 114.53 851.139 114.642 850.747 114.866C850.355 115.09 850.042 115.417 849.809 115.846C849.575 116.275 849.459 116.779 849.459 117.358C849.459 117.946 849.575 118.459 849.809 118.898C850.042 119.327 850.355 119.659 850.747 119.892C851.139 120.116 851.573 120.228 852.049 120.228C852.525 120.228 852.959 120.116 853.351 119.892C853.752 119.659 854.069 119.327 854.303 118.898C854.536 118.459 854.653 117.951 854.653 117.372ZM860.81 121.348C860.222 121.348 859.694 121.25 859.228 121.054C858.761 120.849 858.392 120.569 858.122 120.214C857.851 119.85 857.702 119.435 857.674 118.968H858.99C859.027 119.351 859.204 119.663 859.522 119.906C859.848 120.149 860.273 120.27 860.796 120.27C861.281 120.27 861.664 120.163 861.944 119.948C862.224 119.733 862.364 119.463 862.364 119.136C862.364 118.8 862.214 118.553 861.916 118.394C861.617 118.226 861.155 118.063 860.53 117.904C859.96 117.755 859.494 117.605 859.13 117.456C858.775 117.297 858.467 117.069 858.206 116.77C857.954 116.462 857.828 116.061 857.828 115.566C857.828 115.174 857.944 114.815 858.178 114.488C858.411 114.161 858.742 113.905 859.172 113.718C859.601 113.522 860.091 113.424 860.642 113.424C861.491 113.424 862.177 113.639 862.7 114.068C863.222 114.497 863.502 115.085 863.54 115.832H862.266C862.238 115.431 862.074 115.109 861.776 114.866C861.486 114.623 861.094 114.502 860.6 114.502C860.142 114.502 859.778 114.6 859.508 114.796C859.237 114.992 859.102 115.249 859.102 115.566C859.102 115.818 859.181 116.028 859.34 116.196C859.508 116.355 859.713 116.485 859.956 116.588C860.208 116.681 860.553 116.789 860.992 116.91C861.542 117.059 861.99 117.209 862.336 117.358C862.681 117.498 862.975 117.713 863.218 118.002C863.47 118.291 863.6 118.669 863.61 119.136C863.61 119.556 863.493 119.934 863.26 120.27C863.026 120.606 862.695 120.872 862.266 121.068C861.846 121.255 861.36 121.348 860.81 121.348ZM866.962 114.6V119.122C866.962 119.495 867.041 119.761 867.2 119.92C867.359 120.069 867.634 120.144 868.026 120.144H868.964V121.222H867.816C867.107 121.222 866.575 121.059 866.22 120.732C865.865 120.405 865.688 119.869 865.688 119.122V114.6H864.694V113.55H865.688V111.618H866.962V113.55H868.964V114.6H866.962ZM873.764 117.358C873.764 116.574 873.923 115.888 874.24 115.3C874.557 114.703 874.991 114.241 875.542 113.914C876.102 113.587 876.727 113.424 877.418 113.424C878.015 113.424 878.571 113.564 879.084 113.844C879.597 114.115 879.989 114.474 880.26 114.922V110.862H881.548V121.222H880.26V119.78C880.008 120.237 879.635 120.615 879.14 120.914C878.645 121.203 878.067 121.348 877.404 121.348C876.723 121.348 876.102 121.18 875.542 120.844C874.991 120.508 874.557 120.037 874.24 119.43C873.923 118.823 873.764 118.133 873.764 117.358ZM880.26 117.372C880.26 116.793 880.143 116.289 879.91 115.86C879.677 115.431 879.359 115.104 878.958 114.88C878.566 114.647 878.132 114.53 877.656 114.53C877.18 114.53 876.746 114.642 876.354 114.866C875.962 115.09 875.649 115.417 875.416 115.846C875.183 116.275 875.066 116.779 875.066 117.358C875.066 117.946 875.183 118.459 875.416 118.898C875.649 119.327 875.962 119.659 876.354 119.892C876.746 120.116 877.18 120.228 877.656 120.228C878.132 120.228 878.566 120.116 878.958 119.892C879.359 119.659 879.677 119.327 879.91 118.898C880.143 118.459 880.26 117.951 880.26 117.372ZM890.701 117.092C890.701 117.335 890.687 117.591 890.659 117.862H884.527C884.574 118.618 884.83 119.211 885.297 119.64C885.773 120.06 886.347 120.27 887.019 120.27C887.57 120.27 888.027 120.144 888.391 119.892C888.764 119.631 889.026 119.285 889.175 118.856H890.547C890.342 119.593 889.931 120.195 889.315 120.662C888.699 121.119 887.934 121.348 887.019 121.348C886.291 121.348 885.638 121.185 885.059 120.858C884.49 120.531 884.042 120.069 883.715 119.472C883.388 118.865 883.225 118.165 883.225 117.372C883.225 116.579 883.384 115.883 883.701 115.286C884.018 114.689 884.462 114.231 885.031 113.914C885.61 113.587 886.272 113.424 887.019 113.424C887.747 113.424 888.391 113.583 888.951 113.9C889.511 114.217 889.94 114.656 890.239 115.216C890.547 115.767 890.701 116.392 890.701 117.092ZM889.385 116.826C889.385 116.341 889.278 115.925 889.063 115.58C888.848 115.225 888.554 114.959 888.181 114.782C887.817 114.595 887.411 114.502 886.963 114.502C886.319 114.502 885.768 114.707 885.311 115.118C884.863 115.529 884.606 116.098 884.541 116.826H889.385ZM893.657 110.862V121.222H892.383V110.862H893.657ZM896.486 112.304C896.243 112.304 896.038 112.22 895.87 112.052C895.702 111.884 895.618 111.679 895.618 111.436C895.618 111.193 895.702 110.988 895.87 110.82C896.038 110.652 896.243 110.568 896.486 110.568C896.719 110.568 896.915 110.652 897.074 110.82C897.242 110.988 897.326 111.193 897.326 111.436C897.326 111.679 897.242 111.884 897.074 112.052C896.915 112.22 896.719 112.304 896.486 112.304ZM897.102 113.55V121.222H895.828V113.55H897.102ZM902.129 120.046L904.509 113.55H905.867L902.857 121.222H901.373L898.363 113.55H899.735L902.129 120.046ZM914.121 117.092C914.121 117.335 914.107 117.591 914.079 117.862H907.947C907.994 118.618 908.25 119.211 908.717 119.64C909.193 120.06 909.767 120.27 910.439 120.27C910.99 120.27 911.447 120.144 911.811 119.892C912.184 119.631 912.446 119.285 912.595 118.856H913.967C913.762 119.593 913.351 120.195 912.735 120.662C912.119 121.119 911.354 121.348 910.439 121.348C909.711 121.348 909.058 121.185 908.479 120.858C907.91 120.531 907.462 120.069 907.135 119.472C906.808 118.865 906.645 118.165 906.645 117.372C906.645 116.579 906.804 115.883 907.121 115.286C907.438 114.689 907.882 114.231 908.451 113.914C909.03 113.587 909.692 113.424 910.439 113.424C911.167 113.424 911.811 113.583 912.371 113.9C912.931 114.217 913.36 114.656 913.659 115.216C913.967 115.767 914.121 116.392 914.121 117.092ZM912.805 116.826C912.805 116.341 912.698 115.925 912.483 115.58C912.268 115.225 911.974 114.959 911.601 114.782C911.237 114.595 910.831 114.502 910.383 114.502C909.739 114.502 909.188 114.707 908.731 115.118C908.283 115.529 908.026 116.098 907.961 116.826H912.805ZM917.077 114.796C917.301 114.357 917.618 114.017 918.029 113.774C918.449 113.531 918.957 113.41 919.555 113.41V114.726H919.219C917.791 114.726 917.077 115.501 917.077 117.05V121.222H915.803V113.55H917.077V114.796ZM927.633 113.55L923.013 124.834H921.697L923.209 121.138L920.115 113.55H921.529L923.937 119.766L926.317 113.55H927.633ZM942.866 113.55L940.472 121.222H939.156L937.308 115.132L935.46 121.222H934.144L931.736 113.55H933.038L934.802 119.99L936.706 113.55H938.008L939.87 120.004L941.606 113.55H942.866ZM947.477 121.348C946.758 121.348 946.105 121.185 945.517 120.858C944.938 120.531 944.481 120.069 944.145 119.472C943.818 118.865 943.655 118.165 943.655 117.372C943.655 116.588 943.823 115.897 944.159 115.3C944.504 114.693 944.971 114.231 945.559 113.914C946.147 113.587 946.805 113.424 947.533 113.424C948.261 113.424 948.919 113.587 949.507 113.914C950.095 114.231 950.557 114.689 950.893 115.286C951.238 115.883 951.411 116.579 951.411 117.372C951.411 118.165 951.233 118.865 950.879 119.472C950.533 120.069 950.062 120.531 949.465 120.858C948.867 121.185 948.205 121.348 947.477 121.348ZM947.477 120.228C947.934 120.228 948.363 120.121 948.765 119.906C949.166 119.691 949.488 119.369 949.731 118.94C949.983 118.511 950.109 117.988 950.109 117.372C950.109 116.756 949.987 116.233 949.745 115.804C949.502 115.375 949.185 115.057 948.793 114.852C948.401 114.637 947.976 114.53 947.519 114.53C947.052 114.53 946.623 114.637 946.231 114.852C945.848 115.057 945.54 115.375 945.307 115.804C945.073 116.233 944.957 116.756 944.957 117.372C944.957 117.997 945.069 118.525 945.293 118.954C945.526 119.383 945.834 119.705 946.217 119.92C946.599 120.125 947.019 120.228 947.477 120.228ZM954.36 114.796C954.584 114.357 954.901 114.017 955.312 113.774C955.732 113.531 956.24 113.41 956.838 113.41V114.726H956.502C955.074 114.726 954.36 115.501 954.36 117.05V121.222H953.086V113.55H954.36V114.796ZM959.582 110.862V121.222H958.308V110.862H959.582ZM961.278 117.358C961.278 116.574 961.436 115.888 961.754 115.3C962.071 114.703 962.505 114.241 963.056 113.914C963.616 113.587 964.241 113.424 964.932 113.424C965.529 113.424 966.084 113.564 966.598 113.844C967.111 114.115 967.503 114.474 967.774 114.922V110.862H969.062V121.222H967.774V119.78C967.522 120.237 967.148 120.615 966.654 120.914C966.159 121.203 965.58 121.348 964.918 121.348C964.236 121.348 963.616 121.18 963.056 120.844C962.505 120.508 962.071 120.037 961.754 119.43C961.436 118.823 961.278 118.133 961.278 117.358ZM967.774 117.372C967.774 116.793 967.657 116.289 967.424 115.86C967.19 115.431 966.873 115.104 966.472 114.88C966.08 114.647 965.646 114.53 965.17 114.53C964.694 114.53 964.26 114.642 963.868 114.866C963.476 115.09 963.163 115.417 962.93 115.846C962.696 116.275 962.58 116.779 962.58 117.358C962.58 117.946 962.696 118.459 962.93 118.898C963.163 119.327 963.476 119.659 963.868 119.892C964.26 120.116 964.694 120.228 965.17 120.228C965.646 120.228 966.08 120.116 966.472 119.892C966.873 119.659 967.19 119.327 967.424 118.898C967.657 118.459 967.774 117.951 967.774 117.372ZM981.435 113.55L979.041 121.222H977.725L975.877 115.132L974.029 121.222H972.713L970.305 113.55H971.607L973.371 119.99L975.275 113.55H976.577L978.439 120.004L980.175 113.55H981.435ZM983.357 112.304C983.114 112.304 982.909 112.22 982.741 112.052C982.573 111.884 982.489 111.679 982.489 111.436C982.489 111.193 982.573 110.988 982.741 110.82C982.909 110.652 983.114 110.568 983.357 110.568C983.59 110.568 983.786 110.652 983.945 110.82C984.113 110.988 984.197 111.193 984.197 111.436C984.197 111.679 984.113 111.884 983.945 112.052C983.786 112.22 983.59 112.304 983.357 112.304ZM983.973 113.55V121.222H982.699V113.55H983.973ZM985.668 117.358C985.668 116.574 985.827 115.888 986.144 115.3C986.462 114.703 986.896 114.241 987.446 113.914C988.006 113.587 988.632 113.424 989.322 113.424C989.92 113.424 990.475 113.564 990.988 113.844C991.502 114.115 991.894 114.474 992.164 114.922V110.862H993.452V121.222H992.164V119.78C991.912 120.237 991.539 120.615 991.044 120.914C990.55 121.203 989.971 121.348 989.308 121.348C988.627 121.348 988.006 121.18 987.446 120.844C986.896 120.508 986.462 120.037 986.144 119.43C985.827 118.823 985.668 118.133 985.668 117.358ZM992.164 117.372C992.164 116.793 992.048 116.289 991.814 115.86C991.581 115.431 991.264 115.104 990.862 114.88C990.47 114.647 990.036 114.53 989.56 114.53C989.084 114.53 988.65 114.642 988.258 114.866C987.866 115.09 987.554 115.417 987.32 115.846C987.087 116.275 986.97 116.779 986.97 117.358C986.97 117.946 987.087 118.459 987.32 118.898C987.554 119.327 987.866 119.659 988.258 119.892C988.65 120.116 989.084 120.228 989.56 120.228C990.036 120.228 990.47 120.116 990.862 119.892C991.264 119.659 991.581 119.327 991.814 118.898C992.048 118.459 992.164 117.951 992.164 117.372ZM1002.61 117.092C1002.61 117.335 1002.59 117.591 1002.56 117.862H996.431C996.478 118.618 996.735 119.211 997.201 119.64C997.677 120.06 998.251 120.27 998.923 120.27C999.474 120.27 999.931 120.144 1000.3 119.892C1000.67 119.631 1000.93 119.285 1001.08 118.856H1002.45C1002.25 119.593 1001.84 120.195 1001.22 120.662C1000.6 121.119 999.838 121.348 998.923 121.348C998.195 121.348 997.542 121.185 996.963 120.858C996.394 120.531 995.946 120.069 995.619 119.472C995.293 118.865 995.129 118.165 995.129 117.372C995.129 116.579 995.288 115.883 995.605 115.286C995.923 114.689 996.366 114.231 996.935 113.914C997.514 113.587 998.177 113.424 998.923 113.424C999.651 113.424 1000.3 113.583 1000.86 113.9C1001.42 114.217 1001.84 114.656 1002.14 115.216C1002.45 115.767 1002.61 116.392 1002.61 117.092ZM1001.29 116.826C1001.29 116.341 1001.18 115.925 1000.97 115.58C1000.75 115.225 1000.46 114.959 1000.09 114.782C999.721 114.595 999.315 114.502 998.867 114.502C998.223 114.502 997.673 114.707 997.215 115.118C996.767 115.529 996.511 116.098 996.445 116.826H1001.29Z" fill="#4B5563"/>
<rect x="1071.75" y="76" width="1" height="50.4441" fill="#E5E7EB"/>
<path d="M1114.25 102.972C1114.25 103.942 1115 104.722 1115.92 104.722H1117.8C1118.6 104.722 1119.25 104.042 1119.25 103.192C1119.25 102.282 1118.85 101.952 1118.26 101.742L1115.25 100.692C1114.66 100.482 1114.26 100.162 1114.26 99.242C1114.26 98.402 1114.91 97.712 1115.71 97.712H1117.59C1118.51 97.712 1119.26 98.492 1119.26 99.462" stroke="#111827" stroke-width="1.5" stroke-linecap="round" stroke-linejoin="round"/>
<path d="M1116.75 96.722V105.722" stroke="#111827" stroke-width="1.5" stroke-linecap="round" stroke-linejoin="round"/>
<path d="M1126.75 101.222C1126.75 106.742 1122.27 111.222 1116.75 111.222C1111.23 111.222 1106.75 106.742 1106.75 101.222C1106.75 95.702 1111.23 91.222 1116.75 91.222" stroke="#111827" stroke-width="1.5" stroke-linecap="round" stroke-linejoin="round"/>
<path d="M1121.75 92.222V96.222H1125.75" stroke="#111827" stroke-width="1.5" stroke-linecap="round" stroke-linejoin="round"/>
<path d="M1126.75 91.222L1121.75 96.222" stroke="#111827" stroke-width="1.5" stroke-linecap="round" stroke-linejoin="round"/>
<path d="M1152.47 96.222L1149.7 91.326H1148.51V96.222H1145.99V83.658H1150.71C1151.68 83.658 1152.51 83.832 1153.19 84.18C1153.88 84.516 1154.39 84.978 1154.72 85.566C1155.07 86.142 1155.24 86.79 1155.24 87.51C1155.24 88.338 1155 89.088 1154.52 89.76C1154.04 90.42 1153.33 90.876 1152.38 91.128L1155.39 96.222H1152.47ZM1148.51 89.436H1150.62C1151.3 89.436 1151.81 89.274 1152.15 88.95C1152.48 88.614 1152.65 88.152 1152.65 87.564C1152.65 86.988 1152.48 86.544 1152.15 86.232C1151.81 85.908 1151.3 85.746 1150.62 85.746H1148.51V89.436ZM1166.79 91.02C1166.79 91.38 1166.77 91.704 1166.72 91.992H1159.43C1159.49 92.712 1159.74 93.276 1160.19 93.684C1160.63 94.092 1161.18 94.296 1161.83 94.296C1162.76 94.296 1163.43 93.894 1163.82 93.09H1166.54C1166.25 94.05 1165.7 94.842 1164.89 95.466C1164.07 96.078 1163.07 96.384 1161.88 96.384C1160.92 96.384 1160.06 96.174 1159.29 95.754C1158.53 95.322 1157.94 94.716 1157.51 93.936C1157.09 93.156 1156.88 92.256 1156.88 91.236C1156.88 90.204 1157.09 89.298 1157.51 88.518C1157.93 87.738 1158.51 87.138 1159.27 86.718C1160.03 86.298 1160.9 86.088 1161.88 86.088C1162.83 86.088 1163.67 86.292 1164.42 86.7C1165.17 87.108 1165.76 87.69 1166.16 88.446C1166.58 89.19 1166.79 90.048 1166.79 91.02ZM1164.18 90.3C1164.17 89.652 1163.94 89.136 1163.48 88.752C1163.03 88.356 1162.47 88.158 1161.81 88.158C1161.18 88.158 1160.66 88.35 1160.22 88.734C1159.8 89.106 1159.55 89.628 1159.45 90.3H1164.18ZM1173.2 88.32H1171.46V96.222H1168.9V88.32H1167.77V86.25H1168.9V85.746C1168.9 84.522 1169.25 83.622 1169.95 83.046C1170.64 82.47 1171.69 82.2 1173.1 82.236V84.36C1172.48 84.348 1172.06 84.45 1171.82 84.666C1171.58 84.882 1171.46 85.272 1171.46 85.836V86.25H1173.2V88.32ZM1184.25 86.25V96.222H1181.71V94.962C1181.39 95.394 1180.96 95.736 1180.44 95.988C1179.92 96.228 1179.36 96.348 1178.74 96.348C1177.96 96.348 1177.27 96.186 1176.67 95.862C1176.07 95.526 1175.6 95.04 1175.25 94.404C1174.92 93.756 1174.75 92.988 1174.75 92.1V86.25H1177.27V91.74C1177.27 92.532 1177.47 93.144 1177.86 93.576C1178.26 93.996 1178.8 94.206 1179.48 94.206C1180.18 94.206 1180.72 93.996 1181.12 93.576C1181.52 93.144 1181.71 92.532 1181.71 91.74V86.25H1184.25ZM1192.26 86.106C1193.45 86.106 1194.41 86.484 1195.14 87.24C1195.88 87.984 1196.24 89.028 1196.24 90.372V96.222H1193.72V90.714C1193.72 89.922 1193.52 89.316 1193.13 88.896C1192.73 88.464 1192.19 88.248 1191.51 88.248C1190.81 88.248 1190.26 88.464 1189.85 88.896C1189.46 89.316 1189.26 89.922 1189.26 90.714V96.222H1186.74V86.25H1189.26V87.492C1189.59 87.06 1190.02 86.724 1190.54 86.484C1191.06 86.232 1191.64 86.106 1192.26 86.106ZM1197.99 91.2C1197.99 90.192 1198.19 89.298 1198.58 88.518C1198.99 87.738 1199.54 87.138 1200.24 86.718C1200.94 86.298 1201.71 86.088 1202.56 86.088C1203.21 86.088 1203.83 86.232 1204.42 86.52C1205 86.796 1205.47 87.168 1205.82 87.636V82.902H1208.38V96.222H1205.82V94.746C1205.51 95.238 1205.07 95.634 1204.51 95.934C1203.94 96.234 1203.29 96.384 1202.54 96.384C1201.7 96.384 1200.94 96.168 1200.24 95.736C1199.54 95.304 1198.99 94.698 1198.58 93.918C1198.19 93.126 1197.99 92.22 1197.99 91.2ZM1205.84 91.236C1205.84 90.624 1205.72 90.102 1205.48 89.67C1205.24 89.226 1204.91 88.89 1204.51 88.662C1204.1 88.422 1203.66 88.302 1203.19 88.302C1202.72 88.302 1202.29 88.416 1201.9 88.644C1201.5 88.872 1201.18 89.208 1200.92 89.652C1200.68 90.084 1200.56 90.6 1200.56 91.2C1200.56 91.8 1200.68 92.328 1200.92 92.784C1201.18 93.228 1201.5 93.57 1201.9 93.81C1202.3 94.05 1202.74 94.17 1203.19 94.17C1203.66 94.17 1204.1 94.056 1204.51 93.828C1204.91 93.588 1205.24 93.252 1205.48 92.82C1205.72 92.376 1205.84 91.848 1205.84 91.236ZM1214.65 96.384C1213.84 96.384 1213.11 96.24 1212.46 95.952C1211.81 95.652 1211.29 95.25 1210.91 94.746C1210.54 94.242 1210.33 93.684 1210.3 93.072H1212.84C1212.88 93.456 1213.07 93.774 1213.39 94.026C1213.73 94.278 1214.14 94.404 1214.64 94.404C1215.12 94.404 1215.49 94.308 1215.75 94.116C1216.03 93.924 1216.17 93.678 1216.17 93.378C1216.17 93.054 1216 92.814 1215.66 92.658C1215.34 92.49 1214.82 92.31 1214.1 92.118C1213.35 91.938 1212.74 91.752 1212.26 91.56C1211.79 91.368 1211.38 91.074 1211.04 90.678C1210.7 90.282 1210.53 89.748 1210.53 89.076C1210.53 88.524 1210.69 88.02 1211 87.564C1211.32 87.108 1211.78 86.748 1212.37 86.484C1212.97 86.22 1213.67 86.088 1214.47 86.088C1215.66 86.088 1216.61 86.388 1217.32 86.988C1218.03 87.576 1218.42 88.374 1218.49 89.382H1216.08C1216.04 88.986 1215.87 88.674 1215.57 88.446C1215.28 88.206 1214.89 88.086 1214.4 88.086C1213.95 88.086 1213.59 88.17 1213.34 88.338C1213.1 88.506 1212.98 88.74 1212.98 89.04C1212.98 89.376 1213.15 89.634 1213.48 89.814C1213.82 89.982 1214.34 90.156 1215.05 90.336C1215.77 90.516 1216.36 90.702 1216.83 90.894C1217.3 91.086 1217.7 91.386 1218.04 91.794C1218.39 92.19 1218.57 92.718 1218.58 93.378C1218.58 93.954 1218.42 94.47 1218.09 94.926C1217.78 95.382 1217.32 95.742 1216.72 96.006C1216.14 96.258 1215.45 96.384 1214.65 96.384ZM1227.46 87.69C1227.78 87.234 1228.22 86.856 1228.79 86.556C1229.36 86.244 1230.02 86.088 1230.75 86.088C1231.6 86.088 1232.37 86.298 1233.05 86.718C1233.75 87.138 1234.3 87.738 1234.69 88.518C1235.1 89.286 1235.3 90.18 1235.3 91.2C1235.3 92.22 1235.1 93.126 1234.69 93.918C1234.3 94.698 1233.75 95.304 1233.05 95.736C1232.37 96.168 1231.6 96.384 1230.75 96.384C1230.02 96.384 1229.37 96.234 1228.81 95.934C1228.25 95.634 1227.8 95.256 1227.46 94.8V100.974H1224.94V86.25H1227.46V87.69ZM1232.73 91.2C1232.73 90.6 1232.6 90.084 1232.35 89.652C1232.11 89.208 1231.79 88.872 1231.38 88.644C1230.98 88.416 1230.55 88.302 1230.08 88.302C1229.63 88.302 1229.2 88.422 1228.79 88.662C1228.39 88.89 1228.07 89.226 1227.82 89.67C1227.58 90.114 1227.46 90.636 1227.46 91.236C1227.46 91.836 1227.58 92.358 1227.82 92.802C1228.07 93.246 1228.39 93.588 1228.79 93.828C1229.2 94.056 1229.63 94.17 1230.08 94.17C1230.55 94.17 1230.98 94.05 1231.38 93.81C1231.79 93.57 1232.11 93.228 1232.35 92.784C1232.6 92.34 1232.73 91.812 1232.73 91.2ZM1241.56 96.384C1240.6 96.384 1239.74 96.174 1238.97 95.754C1238.2 95.322 1237.6 94.716 1237.15 93.936C1236.72 93.156 1236.5 92.256 1236.5 91.236C1236.5 90.216 1236.73 89.316 1237.17 88.536C1237.63 87.756 1238.24 87.156 1239.02 86.736C1239.8 86.304 1240.67 86.088 1241.63 86.088C1242.59 86.088 1243.46 86.304 1244.24 86.736C1245.02 87.156 1245.64 87.756 1246.08 88.536C1246.54 89.316 1246.76 90.216 1246.76 91.236C1246.76 92.256 1246.53 93.156 1246.06 93.936C1245.61 94.716 1244.98 95.322 1244.19 95.754C1243.41 96.174 1242.53 96.384 1241.56 96.384ZM1241.56 94.188C1242.02 94.188 1242.44 94.08 1242.84 93.864C1243.25 93.636 1243.57 93.3 1243.81 92.856C1244.05 92.412 1244.17 91.872 1244.17 91.236C1244.17 90.288 1243.92 89.562 1243.42 89.058C1242.92 88.542 1242.32 88.284 1241.6 88.284C1240.88 88.284 1240.27 88.542 1239.78 89.058C1239.3 89.562 1239.06 90.288 1239.06 91.236C1239.06 92.184 1239.29 92.916 1239.76 93.432C1240.24 93.936 1240.84 94.188 1241.56 94.188ZM1251.13 82.902V96.222H1248.61V82.902H1251.13ZM1254.9 85.062C1254.46 85.062 1254.08 84.924 1253.78 84.648C1253.5 84.36 1253.35 84.006 1253.35 83.586C1253.35 83.166 1253.5 82.818 1253.78 82.542C1254.08 82.254 1254.46 82.11 1254.9 82.11C1255.34 82.11 1255.71 82.254 1256 82.542C1256.3 82.818 1256.45 83.166 1256.45 83.586C1256.45 84.006 1256.3 84.36 1256 84.648C1255.71 84.924 1255.34 85.062 1254.9 85.062ZM1256.14 86.25V96.222H1253.62V86.25H1256.14ZM1257.98 91.236C1257.98 90.204 1258.19 89.304 1258.61 88.536C1259.03 87.756 1259.62 87.156 1260.36 86.736C1261.1 86.304 1261.96 86.088 1262.92 86.088C1264.15 86.088 1265.17 86.4 1265.98 87.024C1266.79 87.636 1267.34 88.5 1267.61 89.616H1264.9C1264.75 89.184 1264.51 88.848 1264.16 88.608C1263.82 88.356 1263.4 88.23 1262.9 88.23C1262.18 88.23 1261.61 88.494 1261.19 89.022C1260.77 89.538 1260.56 90.276 1260.56 91.236C1260.56 92.184 1260.77 92.922 1261.19 93.45C1261.61 93.966 1262.18 94.224 1262.9 94.224C1263.92 94.224 1264.58 93.768 1264.9 92.856H1267.61C1267.34 93.936 1266.79 94.794 1265.98 95.43C1265.16 96.066 1264.14 96.384 1262.92 96.384C1261.96 96.384 1261.1 96.174 1260.36 95.754C1259.62 95.322 1259.03 94.722 1258.61 93.954C1258.19 93.174 1257.98 92.268 1257.98 91.236ZM1279 86.25L1272.83 100.938H1270.14L1272.3 95.97L1268.31 86.25H1271.13L1273.71 93.216L1276.32 86.25H1279Z" fill="#111827"/>
<path d="M1151.26 113.508C1151.05 112.472 1150.42 111.954 1149.34 111.954C1148.51 111.954 1147.89 112.276 1147.48 112.92C1147.07 113.555 1146.87 114.605 1146.88 116.07C1147.09 115.585 1147.45 115.207 1147.94 114.936C1148.45 114.656 1149.01 114.516 1149.62 114.516C1150.58 114.516 1151.35 114.815 1151.92 115.412C1152.5 116.009 1152.79 116.835 1152.79 117.89C1152.79 118.525 1152.66 119.094 1152.41 119.598C1152.17 120.102 1151.79 120.503 1151.29 120.802C1150.79 121.101 1150.19 121.25 1149.48 121.25C1148.52 121.25 1147.77 121.035 1147.23 120.606C1146.69 120.177 1146.31 119.584 1146.09 118.828C1145.88 118.072 1145.77 117.139 1145.77 116.028C1145.77 112.603 1146.97 110.89 1149.36 110.89C1150.27 110.89 1150.99 111.137 1151.51 111.632C1152.03 112.127 1152.34 112.752 1152.44 113.508H1151.26ZM1149.36 115.594C1148.95 115.594 1148.58 115.678 1148.22 115.846C1147.87 116.005 1147.58 116.252 1147.35 116.588C1147.14 116.915 1147.03 117.316 1147.03 117.792C1147.03 118.501 1147.24 119.08 1147.65 119.528C1148.06 119.967 1148.65 120.186 1149.41 120.186C1150.07 120.186 1150.58 119.985 1150.97 119.584C1151.36 119.173 1151.55 118.623 1151.55 117.932C1151.55 117.204 1151.37 116.635 1150.99 116.224C1150.62 115.804 1150.07 115.594 1149.36 115.594ZM1154.5 116.056C1154.5 114.451 1154.77 113.2 1155.29 112.304C1155.81 111.399 1156.73 110.946 1158.03 110.946C1159.33 110.946 1160.24 111.399 1160.76 112.304C1161.29 113.2 1161.55 114.451 1161.55 116.056C1161.55 117.689 1161.29 118.959 1160.76 119.864C1160.24 120.769 1159.33 121.222 1158.03 121.222C1156.73 121.222 1155.81 120.769 1155.29 119.864C1154.77 118.959 1154.5 117.689 1154.5 116.056ZM1160.29 116.056C1160.29 115.244 1160.23 114.558 1160.12 113.998C1160.02 113.429 1159.8 112.971 1159.46 112.626C1159.13 112.281 1158.66 112.108 1158.03 112.108C1157.4 112.108 1156.91 112.281 1156.58 112.626C1156.25 112.971 1156.03 113.429 1155.92 113.998C1155.82 114.558 1155.76 115.244 1155.76 116.056C1155.76 116.896 1155.82 117.601 1155.92 118.17C1156.03 118.739 1156.25 119.197 1156.58 119.542C1156.91 119.887 1157.4 120.06 1158.03 120.06C1158.66 120.06 1159.13 119.887 1159.46 119.542C1159.8 119.197 1160.02 118.739 1160.12 118.17C1160.23 117.601 1160.29 116.896 1160.29 116.056ZM1166.76 117.358C1166.76 116.574 1166.92 115.888 1167.24 115.3C1167.56 114.703 1167.99 114.241 1168.54 113.914C1169.1 113.587 1169.73 113.424 1170.42 113.424C1171.01 113.424 1171.57 113.564 1172.08 113.844C1172.6 114.115 1172.99 114.474 1173.26 114.922V110.862H1174.55V121.222H1173.26V119.78C1173.01 120.237 1172.63 120.615 1172.14 120.914C1171.64 121.203 1171.06 121.348 1170.4 121.348C1169.72 121.348 1169.1 121.18 1168.54 120.844C1167.99 120.508 1167.56 120.037 1167.24 119.43C1166.92 118.823 1166.76 118.133 1166.76 117.358ZM1173.26 117.372C1173.26 116.793 1173.14 116.289 1172.91 115.86C1172.67 115.431 1172.36 115.104 1171.96 114.88C1171.56 114.647 1171.13 114.53 1170.65 114.53C1170.18 114.53 1169.74 114.642 1169.35 114.866C1168.96 115.09 1168.65 115.417 1168.41 115.846C1168.18 116.275 1168.06 116.779 1168.06 117.358C1168.06 117.946 1168.18 118.459 1168.41 118.898C1168.65 119.327 1168.96 119.659 1169.35 119.892C1169.74 120.116 1170.18 120.228 1170.65 120.228C1171.13 120.228 1171.56 120.116 1171.96 119.892C1172.36 119.659 1172.67 119.327 1172.91 118.898C1173.14 118.459 1173.26 117.951 1173.26 117.372ZM1176.22 117.358C1176.22 116.574 1176.38 115.888 1176.7 115.3C1177.02 114.703 1177.45 114.241 1178 113.914C1178.56 113.587 1179.18 113.424 1179.86 113.424C1180.54 113.424 1181.12 113.569 1181.61 113.858C1182.11 114.147 1182.48 114.511 1182.72 114.95V113.55H1184.01V121.222H1182.72V119.794C1182.47 120.242 1182.09 120.615 1181.59 120.914C1181.09 121.203 1180.51 121.348 1179.85 121.348C1179.17 121.348 1178.55 121.18 1178 120.844C1177.45 120.508 1177.02 120.037 1176.7 119.43C1176.38 118.823 1176.22 118.133 1176.22 117.358ZM1182.72 117.372C1182.72 116.793 1182.6 116.289 1182.37 115.86C1182.14 115.431 1181.82 115.104 1181.42 114.88C1181.03 114.647 1180.59 114.53 1180.12 114.53C1179.64 114.53 1179.21 114.642 1178.81 114.866C1178.42 115.09 1178.11 115.417 1177.88 115.846C1177.64 116.275 1177.53 116.779 1177.53 117.358C1177.53 117.946 1177.64 118.459 1177.88 118.898C1178.11 119.327 1178.42 119.659 1178.81 119.892C1179.21 120.116 1179.64 120.228 1180.12 120.228C1180.59 120.228 1181.03 120.116 1181.42 119.892C1181.82 119.659 1182.14 119.327 1182.37 118.898C1182.6 118.459 1182.72 117.951 1182.72 117.372ZM1192.77 113.55L1188.15 124.834H1186.83L1188.34 121.138L1185.25 113.55H1186.66L1189.07 119.766L1191.45 113.55H1192.77ZM1196.76 121.348C1196.18 121.348 1195.65 121.25 1195.18 121.054C1194.72 120.849 1194.35 120.569 1194.08 120.214C1193.81 119.85 1193.66 119.435 1193.63 118.968H1194.94C1194.98 119.351 1195.16 119.663 1195.48 119.906C1195.8 120.149 1196.23 120.27 1196.75 120.27C1197.24 120.27 1197.62 120.163 1197.9 119.948C1198.18 119.733 1198.32 119.463 1198.32 119.136C1198.32 118.8 1198.17 118.553 1197.87 118.394C1197.57 118.226 1197.11 118.063 1196.48 117.904C1195.92 117.755 1195.45 117.605 1195.08 117.456C1194.73 117.297 1194.42 117.069 1194.16 116.77C1193.91 116.462 1193.78 116.061 1193.78 115.566C1193.78 115.174 1193.9 114.815 1194.13 114.488C1194.37 114.161 1194.7 113.905 1195.13 113.718C1195.56 113.522 1196.05 113.424 1196.6 113.424C1197.45 113.424 1198.13 113.639 1198.65 114.068C1199.18 114.497 1199.46 115.085 1199.49 115.832H1198.22C1198.19 115.431 1198.03 115.109 1197.73 114.866C1197.44 114.623 1197.05 114.502 1196.55 114.502C1196.1 114.502 1195.73 114.6 1195.46 114.796C1195.19 114.992 1195.06 115.249 1195.06 115.566C1195.06 115.818 1195.14 116.028 1195.29 116.196C1195.46 116.355 1195.67 116.485 1195.91 116.588C1196.16 116.681 1196.51 116.789 1196.95 116.91C1197.5 117.059 1197.95 117.209 1198.29 117.358C1198.64 117.498 1198.93 117.713 1199.17 118.002C1199.42 118.291 1199.56 118.669 1199.56 119.136C1199.56 119.556 1199.45 119.934 1199.21 120.27C1198.98 120.606 1198.65 120.872 1198.22 121.068C1197.8 121.255 1197.32 121.348 1196.76 121.348ZM1206.37 114.796C1206.59 114.357 1206.91 114.017 1207.32 113.774C1207.74 113.531 1208.25 113.41 1208.85 113.41V114.726H1208.51C1207.08 114.726 1206.37 115.501 1206.37 117.05V121.222H1205.1V113.55H1206.37V114.796ZM1217.32 117.092C1217.32 117.335 1217.3 117.591 1217.28 117.862H1211.14C1211.19 118.618 1211.45 119.211 1211.91 119.64C1212.39 120.06 1212.96 120.27 1213.64 120.27C1214.19 120.27 1214.64 120.144 1215.01 119.892C1215.38 119.631 1215.64 119.285 1215.79 118.856H1217.16C1216.96 119.593 1216.55 120.195 1215.93 120.662C1215.32 121.119 1214.55 121.348 1213.64 121.348C1212.91 121.348 1212.25 121.185 1211.68 120.858C1211.11 120.531 1210.66 120.069 1210.33 119.472C1210.01 118.865 1209.84 118.165 1209.84 117.372C1209.84 116.579 1210 115.883 1210.32 115.286C1210.64 114.689 1211.08 114.231 1211.65 113.914C1212.23 113.587 1212.89 113.424 1213.64 113.424C1214.36 113.424 1215.01 113.583 1215.57 113.9C1216.13 114.217 1216.56 114.656 1216.86 115.216C1217.16 115.767 1217.32 116.392 1217.32 117.092ZM1216 116.826C1216 116.341 1215.89 115.925 1215.68 115.58C1215.47 115.225 1215.17 114.959 1214.8 114.782C1214.43 114.595 1214.03 114.502 1213.58 114.502C1212.94 114.502 1212.39 114.707 1211.93 115.118C1211.48 115.529 1211.22 116.098 1211.16 116.826H1216ZM1220.55 114.6V119.122C1220.55 119.495 1220.63 119.761 1220.79 119.92C1220.95 120.069 1221.23 120.144 1221.62 120.144H1222.56V121.222H1221.41C1220.7 121.222 1220.17 121.059 1219.81 120.732C1219.46 120.405 1219.28 119.869 1219.28 119.122V114.6H1218.29V113.55H1219.28V111.618H1220.55V113.55H1222.56V114.6H1220.55ZM1230.9 113.55V121.222H1229.63V120.088C1229.39 120.48 1229.05 120.788 1228.61 121.012C1228.18 121.227 1227.7 121.334 1227.18 121.334C1226.58 121.334 1226.05 121.213 1225.57 120.97C1225.09 120.718 1224.72 120.345 1224.44 119.85C1224.16 119.355 1224.03 118.753 1224.03 118.044V113.55H1225.29V117.876C1225.29 118.632 1225.48 119.215 1225.86 119.626C1226.25 120.027 1226.77 120.228 1227.43 120.228C1228.11 120.228 1228.65 120.018 1229.04 119.598C1229.43 119.178 1229.63 118.567 1229.63 117.764V113.55H1230.9ZM1234.33 114.796C1234.55 114.357 1234.87 114.017 1235.28 113.774C1235.7 113.531 1236.21 113.41 1236.81 113.41V114.726H1236.47C1235.04 114.726 1234.33 115.501 1234.33 117.05V121.222H1233.05V113.55H1234.33V114.796ZM1242.02 113.41C1242.95 113.41 1243.7 113.695 1244.28 114.264C1244.86 114.824 1245.15 115.636 1245.15 116.7V121.222H1243.89V116.882C1243.89 116.117 1243.7 115.533 1243.32 115.132C1242.93 114.721 1242.41 114.516 1241.75 114.516C1241.08 114.516 1240.54 114.726 1240.14 115.146C1239.75 115.566 1239.55 116.177 1239.55 116.98V121.222H1238.28V113.55H1239.55V114.642C1239.8 114.25 1240.14 113.947 1240.57 113.732C1241.01 113.517 1241.49 113.41 1242.02 113.41ZM1254.09 114.6H1252.48V121.222H1251.2V114.6H1250.21V113.55H1251.2V113.004C1251.2 112.145 1251.42 111.52 1251.86 111.128C1252.31 110.727 1253.02 110.526 1254 110.526V111.59C1253.44 111.59 1253.05 111.702 1252.81 111.926C1252.59 112.141 1252.48 112.5 1252.48 113.004V113.55H1254.09V114.6ZM1258.92 121.348C1258.2 121.348 1257.55 121.185 1256.96 120.858C1256.38 120.531 1255.92 120.069 1255.59 119.472C1255.26 118.865 1255.1 118.165 1255.1 117.372C1255.1 116.588 1255.26 115.897 1255.6 115.3C1255.95 114.693 1256.41 114.231 1257 113.914C1257.59 113.587 1258.25 113.424 1258.97 113.424C1259.7 113.424 1260.36 113.587 1260.95 113.914C1261.54 114.231 1262 114.689 1262.33 115.286C1262.68 115.883 1262.85 116.579 1262.85 117.372C1262.85 118.165 1262.67 118.865 1262.32 119.472C1261.97 120.069 1261.5 120.531 1260.91 120.858C1260.31 121.185 1259.65 121.348 1258.92 121.348ZM1258.92 120.228C1259.38 120.228 1259.8 120.121 1260.21 119.906C1260.61 119.691 1260.93 119.369 1261.17 118.94C1261.42 118.511 1261.55 117.988 1261.55 117.372C1261.55 116.756 1261.43 116.233 1261.19 115.804C1260.94 115.375 1260.63 115.057 1260.23 114.852C1259.84 114.637 1259.42 114.53 1258.96 114.53C1258.49 114.53 1258.06 114.637 1257.67 114.852C1257.29 115.057 1256.98 115.375 1256.75 115.804C1256.51 116.233 1256.4 116.756 1256.4 117.372C1256.4 117.997 1256.51 118.525 1256.73 118.954C1256.97 119.383 1257.28 119.705 1257.66 119.92C1258.04 120.125 1258.46 120.228 1258.92 120.228ZM1265.8 114.796C1266.03 114.357 1266.34 114.017 1266.75 113.774C1267.17 113.531 1267.68 113.41 1268.28 113.41V114.726H1267.94C1266.52 114.726 1265.8 115.501 1265.8 117.05V121.222H1264.53V113.55H1265.8V114.796ZM1273.01 117.358C1273.01 116.574 1273.16 115.888 1273.48 115.3C1273.8 114.703 1274.23 114.241 1274.78 113.914C1275.34 113.587 1275.96 113.424 1276.65 113.424C1277.32 113.424 1277.9 113.569 1278.4 113.858C1278.89 114.147 1279.26 114.511 1279.5 114.95V113.55H1280.79V121.222H1279.5V119.794C1279.25 120.242 1278.87 120.615 1278.37 120.914C1277.87 121.203 1277.29 121.348 1276.63 121.348C1275.95 121.348 1275.33 121.18 1274.78 120.844C1274.23 120.508 1273.8 120.037 1273.48 119.43C1273.16 118.823 1273.01 118.133 1273.01 117.358ZM1279.5 117.372C1279.5 116.793 1279.39 116.289 1279.15 115.86C1278.92 115.431 1278.6 115.104 1278.2 114.88C1277.81 114.647 1277.37 114.53 1276.9 114.53C1276.42 114.53 1275.99 114.642 1275.6 114.866C1275.2 115.09 1274.89 115.417 1274.66 115.846C1274.42 116.275 1274.31 116.779 1274.31 117.358C1274.31 117.946 1274.42 118.459 1274.66 118.898C1274.89 119.327 1275.2 119.659 1275.6 119.892C1275.99 120.116 1276.42 120.228 1276.9 120.228C1277.37 120.228 1277.81 120.116 1278.2 119.892C1278.6 119.659 1278.92 119.327 1279.15 118.898C1279.39 118.459 1279.5 117.951 1279.5 117.372ZM1286.68 113.41C1287.61 113.41 1288.37 113.695 1288.95 114.264C1289.53 114.824 1289.82 115.636 1289.82 116.7V121.222H1288.56V116.882C1288.56 116.117 1288.37 115.533 1287.98 115.132C1287.6 114.721 1287.08 114.516 1286.42 114.516C1285.74 114.516 1285.21 114.726 1284.81 115.146C1284.41 115.566 1284.22 116.177 1284.22 116.98V121.222H1282.94V113.55H1284.22V114.642C1284.47 114.25 1284.81 113.947 1285.24 113.732C1285.68 113.517 1286.16 113.41 1286.68 113.41ZM1298.51 113.55L1293.89 124.834H1292.57L1294.08 121.138L1290.99 113.55H1292.4L1294.81 119.766L1297.19 113.55H1298.51ZM1304.79 114.796C1305.02 114.357 1305.33 114.017 1305.75 113.774C1306.17 113.531 1306.67 113.41 1307.27 113.41V114.726H1306.94C1305.51 114.726 1304.79 115.501 1304.79 117.05V121.222H1303.52V113.55H1304.79V114.796ZM1315.74 117.092C1315.74 117.335 1315.73 117.591 1315.7 117.862H1309.57C1309.61 118.618 1309.87 119.211 1310.34 119.64C1310.81 120.06 1311.39 120.27 1312.06 120.27C1312.61 120.27 1313.07 120.144 1313.43 119.892C1313.81 119.631 1314.07 119.285 1314.22 118.856H1315.59C1315.38 119.593 1314.97 120.195 1314.36 120.662C1313.74 121.119 1312.97 121.348 1312.06 121.348C1311.33 121.348 1310.68 121.185 1310.1 120.858C1309.53 120.531 1309.08 120.069 1308.76 119.472C1308.43 118.865 1308.27 118.165 1308.27 117.372C1308.27 116.579 1308.42 115.883 1308.74 115.286C1309.06 114.689 1309.5 114.231 1310.07 113.914C1310.65 113.587 1311.31 113.424 1312.06 113.424C1312.79 113.424 1313.43 113.583 1313.99 113.9C1314.55 114.217 1314.98 114.656 1315.28 115.216C1315.59 115.767 1315.74 116.392 1315.74 117.092ZM1314.43 116.826C1314.43 116.341 1314.32 115.925 1314.1 115.58C1313.89 115.225 1313.6 114.959 1313.22 114.782C1312.86 114.595 1312.45 114.502 1312 114.502C1311.36 114.502 1310.81 114.707 1310.35 115.118C1309.9 115.529 1309.65 116.098 1309.58 116.826H1314.43ZM1316.95 117.358C1316.95 116.574 1317.11 115.888 1317.42 115.3C1317.74 114.703 1318.18 114.241 1318.73 113.914C1319.29 113.587 1319.91 113.424 1320.59 113.424C1321.26 113.424 1321.84 113.569 1322.34 113.858C1322.83 114.147 1323.2 114.511 1323.44 114.95V113.55H1324.73V121.222H1323.44V119.794C1323.19 120.242 1322.81 120.615 1322.31 120.914C1321.82 121.203 1321.24 121.348 1320.57 121.348C1319.89 121.348 1319.28 121.18 1318.73 120.844C1318.18 120.508 1317.74 120.037 1317.42 119.43C1317.11 118.823 1316.95 118.133 1316.95 117.358ZM1323.44 117.372C1323.44 116.793 1323.33 116.289 1323.09 115.86C1322.86 115.431 1322.54 115.104 1322.14 114.88C1321.75 114.647 1321.32 114.53 1320.84 114.53C1320.36 114.53 1319.93 114.642 1319.54 114.866C1319.15 115.09 1318.83 115.417 1318.6 115.846C1318.37 116.275 1318.25 116.779 1318.25 117.358C1318.25 117.946 1318.37 118.459 1318.6 118.898C1318.83 119.327 1319.15 119.659 1319.54 119.892C1319.93 120.116 1320.36 120.228 1320.84 120.228C1321.32 120.228 1321.75 120.116 1322.14 119.892C1322.54 119.659 1322.86 119.327 1323.09 118.898C1323.33 118.459 1323.44 117.951 1323.44 117.372ZM1329.6 121.348C1329.01 121.348 1328.49 121.25 1328.02 121.054C1327.55 120.849 1327.18 120.569 1326.91 120.214C1326.64 119.85 1326.49 119.435 1326.46 118.968H1327.78C1327.82 119.351 1328 119.663 1328.31 119.906C1328.64 120.149 1329.06 120.27 1329.59 120.27C1330.07 120.27 1330.45 120.163 1330.73 119.948C1331.01 119.733 1331.15 119.463 1331.15 119.136C1331.15 118.8 1331.01 118.553 1330.71 118.394C1330.41 118.226 1329.95 118.063 1329.32 117.904C1328.75 117.755 1328.28 117.605 1327.92 117.456C1327.57 117.297 1327.26 117.069 1327 116.77C1326.74 116.462 1326.62 116.061 1326.62 115.566C1326.62 115.174 1326.74 114.815 1326.97 114.488C1327.2 114.161 1327.53 113.905 1327.96 113.718C1328.39 113.522 1328.88 113.424 1329.43 113.424C1330.28 113.424 1330.97 113.639 1331.49 114.068C1332.01 114.497 1332.29 115.085 1332.33 115.832H1331.06C1331.03 115.431 1330.87 115.109 1330.57 114.866C1330.28 114.623 1329.89 114.502 1329.39 114.502C1328.93 114.502 1328.57 114.6 1328.3 114.796C1328.03 114.992 1327.89 115.249 1327.89 115.566C1327.89 115.818 1327.97 116.028 1328.13 116.196C1328.3 116.355 1328.5 116.485 1328.75 116.588C1329 116.681 1329.34 116.789 1329.78 116.91C1330.33 117.059 1330.78 117.209 1331.13 117.358C1331.47 117.498 1331.77 117.713 1332.01 118.002C1332.26 118.291 1332.39 118.669 1332.4 119.136C1332.4 119.556 1332.28 119.934 1332.05 120.27C1331.82 120.606 1331.49 120.872 1331.06 121.068C1330.64 121.255 1330.15 121.348 1329.6 121.348ZM1337.55 121.348C1336.83 121.348 1336.17 121.185 1335.59 120.858C1335.01 120.531 1334.55 120.069 1334.21 119.472C1333.89 118.865 1333.72 118.165 1333.72 117.372C1333.72 116.588 1333.89 115.897 1334.23 115.3C1334.57 114.693 1335.04 114.231 1335.63 113.914C1336.22 113.587 1336.87 113.424 1337.6 113.424C1338.33 113.424 1338.99 113.587 1339.58 113.914C1340.16 114.231 1340.63 114.689 1340.96 115.286C1341.31 115.883 1341.48 116.579 1341.48 117.372C1341.48 118.165 1341.3 118.865 1340.95 119.472C1340.6 120.069 1340.13 120.531 1339.53 120.858C1338.94 121.185 1338.27 121.348 1337.55 121.348ZM1337.55 120.228C1338 120.228 1338.43 120.121 1338.83 119.906C1339.23 119.691 1339.56 119.369 1339.8 118.94C1340.05 118.511 1340.18 117.988 1340.18 117.372C1340.18 116.756 1340.06 116.233 1339.81 115.804C1339.57 115.375 1339.25 115.057 1338.86 114.852C1338.47 114.637 1338.04 114.53 1337.59 114.53C1337.12 114.53 1336.69 114.637 1336.3 114.852C1335.92 115.057 1335.61 115.375 1335.38 115.804C1335.14 116.233 1335.03 116.756 1335.03 117.372C1335.03 117.997 1335.14 118.525 1335.36 118.954C1335.59 119.383 1335.9 119.705 1336.29 119.92C1336.67 120.125 1337.09 120.228 1337.55 120.228ZM1346.89 113.41C1347.83 113.41 1348.58 113.695 1349.16 114.264C1349.74 114.824 1350.03 115.636 1350.03 116.7V121.222H1348.77V116.882C1348.77 116.117 1348.58 115.533 1348.19 115.132C1347.81 114.721 1347.29 114.516 1346.63 114.516C1345.95 114.516 1345.42 114.726 1345.02 115.146C1344.62 115.566 1344.43 116.177 1344.43 116.98V121.222H1343.15V113.55H1344.43V114.642C1344.68 114.25 1345.02 113.947 1345.45 113.732C1345.89 113.517 1346.37 113.41 1346.89 113.41Z" fill="#4B5563"/>
</svg>
