<svg width="156" height="20" viewBox="0 0 156 20" fill="none" xmlns="http://www.w3.org/2000/svg">
<g clip-path="url(#clip0_298_10752)">
<path d="M14.6667 12C14.6667 14.58 12.58 16.6667 10 16.6667L10.7 15.5" stroke="#4B5563" stroke-width="1.5" stroke-linecap="round" stroke-linejoin="round"/>
<path d="M1.33337 7.99998C1.33337 5.41998 3.42004 3.33331 6.00004 3.33331L5.30004 4.49998" stroke="#4B5563" stroke-width="1.5" stroke-linecap="round" stroke-linejoin="round"/>
<path d="M9.1333 4.96661L11.7866 6.49994L14.4132 4.97329" stroke="#4B5563" stroke-width="1.5" stroke-linecap="round" stroke-linejoin="round"/>
<path d="M11.7866 9.21335V6.49335" stroke="#4B5563" stroke-width="1.5" stroke-linecap="round" stroke-linejoin="round"/>
<path d="M11.16 3.47331L9.56002 4.35995C9.20002 4.55995 8.90002 5.06661 8.90002 5.47995V7.17331C8.90002 7.58664 9.19336 8.0933 9.56002 8.2933L11.16 9.17998C11.5 9.37331 12.06 9.37331 12.4067 9.17998L14.0067 8.2933C14.3667 8.0933 14.6667 7.58664 14.6667 7.17331V5.47995C14.6667 5.06661 14.3734 4.55995 14.0067 4.35995L12.4067 3.47331C12.0667 3.28665 11.5067 3.28665 11.16 3.47331Z" stroke="#4B5563" stroke-width="1.5" stroke-linecap="round" stroke-linejoin="round"/>
<path d="M1.56665 12.3L4.21332 13.8333L6.84666 12.3067" stroke="#4B5563" stroke-width="1.5" stroke-linecap="round" stroke-linejoin="round"/>
<path d="M4.21326 16.5467V13.8267" stroke="#4B5563" stroke-width="1.5" stroke-linecap="round" stroke-linejoin="round"/>
<path d="M3.59337 10.8067L1.99338 11.6934C1.63338 11.8934 1.33337 12.4 1.33337 12.8133V14.5067C1.33337 14.92 1.62671 15.4267 1.99338 15.6267L3.59337 16.5134C3.93337 16.7067 4.49337 16.7067 4.84003 16.5134L6.44004 15.6267C6.80004 15.4267 7.10004 14.92 7.10004 14.5067V12.8133C7.10004 12.4 6.80671 11.8934 6.44004 11.6934L4.84003 10.8067C4.49337 10.62 3.93337 10.62 3.59337 10.8067Z" stroke="#4B5563" stroke-width="1.5" stroke-linecap="round" stroke-linejoin="round"/>
</g>
<path d="M33.142 5.242L29.46 15H27.99L24.308 5.242H25.666L28.732 13.656L31.798 5.242H33.142ZM41.5389 10.87C41.5389 11.1127 41.5249 11.3693 41.4969 11.64H35.3649C35.4116 12.396 35.6683 12.9887 36.1349 13.418C36.6109 13.838 37.1849 14.048 37.8569 14.048C38.4076 14.048 38.8649 13.922 39.2289 13.67C39.6023 13.4087 39.8636 13.0633 40.0129 12.634H41.3849C41.1796 13.3713 40.7689 13.9733 40.1529 14.44C39.5369 14.8973 38.7716 15.126 37.8569 15.126C37.1289 15.126 36.4756 14.9627 35.8969 14.636C35.3276 14.3093 34.8796 13.8473 34.5529 13.25C34.2263 12.6433 34.0629 11.9433 34.0629 11.15C34.0629 10.3567 34.2216 9.66133 34.5389 9.064C34.8563 8.46667 35.2996 8.00933 35.8689 7.692C36.4476 7.36533 37.1103 7.202 37.8569 7.202C38.5849 7.202 39.2289 7.36067 39.7889 7.678C40.3489 7.99533 40.7783 8.434 41.0769 8.994C41.3849 9.54467 41.5389 10.17 41.5389 10.87ZM40.2229 10.604C40.2229 10.1187 40.1156 9.70333 39.9009 9.358C39.6863 9.00333 39.3923 8.73733 39.0189 8.56C38.6549 8.37333 38.2489 8.28 37.8009 8.28C37.1569 8.28 36.6063 8.48533 36.1489 8.896C35.7009 9.30667 35.4443 9.876 35.3789 10.604H40.2229ZM44.4946 8.574C44.7186 8.13533 45.0359 7.79467 45.4466 7.552C45.8666 7.30933 46.3752 7.188 46.9726 7.188V8.504H46.6366C45.2086 8.504 44.4946 9.27867 44.4946 10.828V15H43.2206V7.328H44.4946V8.574ZM55.0512 7.328L50.4312 18.612H49.1152L50.6272 14.916L47.5332 7.328H48.9472L51.3552 13.544L53.7352 7.328H55.0512ZM67.0643 10.87C67.0643 11.1127 67.0503 11.3693 67.0223 11.64H60.8903C60.937 12.396 61.1937 12.9887 61.6603 13.418C62.1363 13.838 62.7103 14.048 63.3823 14.048C63.933 14.048 64.3903 13.922 64.7543 13.67C65.1277 13.4087 65.389 13.0633 65.5383 12.634H66.9103C66.705 13.3713 66.2943 13.9733 65.6783 14.44C65.0623 14.8973 64.297 15.126 63.3823 15.126C62.6543 15.126 62.001 14.9627 61.4223 14.636C60.853 14.3093 60.405 13.8473 60.0783 13.25C59.7517 12.6433 59.5883 11.9433 59.5883 11.15C59.5883 10.3567 59.747 9.66133 60.0643 9.064C60.3817 8.46667 60.825 8.00933 61.3943 7.692C61.973 7.36533 62.6357 7.202 63.3823 7.202C64.1103 7.202 64.7543 7.36067 65.3143 7.678C65.8743 7.99533 66.3037 8.434 66.6023 8.994C66.9103 9.54467 67.0643 10.17 67.0643 10.87ZM65.7483 10.604C65.7483 10.1187 65.641 9.70333 65.4263 9.358C65.2117 9.00333 64.9177 8.73733 64.5443 8.56C64.1803 8.37333 63.7743 8.28 63.3263 8.28C62.6823 8.28 62.1317 8.48533 61.6743 8.896C61.2263 9.30667 60.9697 9.876 60.9043 10.604H65.7483ZM68.27 11.136C68.27 10.352 68.4286 9.666 68.746 9.078C69.0633 8.48067 69.4973 8.01867 70.048 7.692C70.608 7.36533 71.2286 7.202 71.91 7.202C72.582 7.202 73.1653 7.34667 73.66 7.636C74.1546 7.92533 74.5233 8.28933 74.766 8.728V7.328H76.054V15H74.766V13.572C74.514 14.02 74.136 14.3933 73.632 14.692C73.1373 14.9813 72.5586 15.126 71.896 15.126C71.2146 15.126 70.5986 14.958 70.048 14.622C69.4973 14.286 69.0633 13.8147 68.746 13.208C68.4286 12.6013 68.27 11.9107 68.27 11.136ZM74.766 11.15C74.766 10.5713 74.6493 10.0673 74.416 9.638C74.1826 9.20867 73.8653 8.882 73.464 8.658C73.072 8.42467 72.638 8.308 72.162 8.308C71.686 8.308 71.252 8.42 70.86 8.644C70.468 8.868 70.1553 9.19467 69.922 9.624C69.6886 10.0533 69.572 10.5573 69.572 11.136C69.572 11.724 69.6886 12.2373 69.922 12.676C70.1553 13.1053 70.468 13.4367 70.86 13.67C71.252 13.894 71.686 14.006 72.162 14.006C72.638 14.006 73.072 13.894 73.464 13.67C73.8653 13.4367 74.1826 13.1053 74.416 12.676C74.6493 12.2373 74.766 11.7287 74.766 11.15ZM80.9229 15.126C80.3349 15.126 79.8076 15.028 79.3409 14.832C78.8742 14.6267 78.5056 14.3467 78.2349 13.992C77.9642 13.628 77.8149 13.2127 77.7869 12.746H79.1029C79.1402 13.1287 79.3176 13.4413 79.6349 13.684C79.9616 13.9267 80.3862 14.048 80.9089 14.048C81.3942 14.048 81.7769 13.9407 82.0569 13.726C82.3369 13.5113 82.4769 13.2407 82.4769 12.914C82.4769 12.578 82.3276 12.3307 82.0289 12.172C81.7302 12.004 81.2682 11.8407 80.6429 11.682C80.0736 11.5327 79.6069 11.3833 79.2429 11.234C78.8882 11.0753 78.5802 10.8467 78.3189 10.548C78.0669 10.24 77.9409 9.83867 77.9409 9.344C77.9409 8.952 78.0576 8.59267 78.2909 8.266C78.5242 7.93933 78.8556 7.68267 79.2849 7.496C79.7142 7.3 80.2042 7.202 80.7549 7.202C81.6042 7.202 82.2902 7.41667 82.8129 7.846C83.3356 8.27533 83.6156 8.86333 83.6529 9.61H82.3789C82.3509 9.20867 82.1876 8.88667 81.8889 8.644C81.5996 8.40133 81.2076 8.28 80.7129 8.28C80.2556 8.28 79.8916 8.378 79.6209 8.574C79.3502 8.77 79.2149 9.02667 79.2149 9.344C79.2149 9.596 79.2942 9.806 79.4529 9.974C79.6209 10.1327 79.8262 10.2633 80.0689 10.366C80.3209 10.4593 80.6662 10.5667 81.1049 10.688C81.6556 10.8373 82.1036 10.9867 82.4489 11.136C82.7942 11.276 83.0882 11.4907 83.3309 11.78C83.5829 12.0693 83.7136 12.4473 83.7229 12.914C83.7229 13.334 83.6062 13.712 83.3729 14.048C83.1396 14.384 82.8082 14.65 82.3789 14.846C81.9589 15.0327 81.4736 15.126 80.9229 15.126ZM92.1294 7.328L87.5094 18.612H86.1934L87.7054 14.916L84.6114 7.328H86.0254L88.4334 13.544L90.8134 7.328H92.1294ZM98.6965 8.378V12.9C98.6965 13.2733 98.7758 13.5393 98.9345 13.698C99.0931 13.8473 99.3685 13.922 99.7605 13.922H100.698V15H99.5505C98.8411 15 98.3091 14.8367 97.9545 14.51C97.5998 14.1833 97.4225 13.6467 97.4225 12.9V8.378H96.4285V7.328H97.4225V5.396H98.6965V7.328H100.698V8.378H98.6965ZM105.588 15.126C104.869 15.126 104.216 14.9627 103.628 14.636C103.049 14.3093 102.592 13.8473 102.256 13.25C101.929 12.6433 101.766 11.9433 101.766 11.15C101.766 10.366 101.934 9.67533 102.27 9.078C102.615 8.47133 103.082 8.00933 103.67 7.692C104.258 7.36533 104.916 7.202 105.644 7.202C106.372 7.202 107.03 7.36533 107.618 7.692C108.206 8.00933 108.668 8.46667 109.004 9.064C109.349 9.66133 109.522 10.3567 109.522 11.15C109.522 11.9433 109.345 12.6433 108.99 13.25C108.645 13.8473 108.173 14.3093 107.576 14.636C106.979 14.9627 106.316 15.126 105.588 15.126ZM105.588 14.006C106.045 14.006 106.475 13.8987 106.876 13.684C107.277 13.4693 107.599 13.1473 107.842 12.718C108.094 12.2887 108.22 11.766 108.22 11.15C108.22 10.534 108.099 10.0113 107.856 9.582C107.613 9.15267 107.296 8.83533 106.904 8.63C106.512 8.41533 106.087 8.308 105.63 8.308C105.163 8.308 104.734 8.41533 104.342 8.63C103.959 8.83533 103.651 9.15267 103.418 9.582C103.185 10.0113 103.068 10.534 103.068 11.15C103.068 11.7753 103.18 12.3027 103.404 12.732C103.637 13.1613 103.945 13.4833 104.328 13.698C104.711 13.9033 105.131 14.006 105.588 14.006ZM116.204 8.574C116.428 8.13533 116.745 7.79467 117.156 7.552C117.576 7.30933 118.084 7.188 118.682 7.188V8.504H118.346C116.918 8.504 116.204 9.27867 116.204 10.828V15H114.93V7.328H116.204V8.574ZM127.152 10.87C127.152 11.1127 127.138 11.3693 127.11 11.64H120.978C121.025 12.396 121.282 12.9887 121.748 13.418C122.224 13.838 122.798 14.048 123.47 14.048C124.021 14.048 124.478 13.922 124.842 13.67C125.216 13.4087 125.477 13.0633 125.626 12.634H126.998C126.793 13.3713 126.382 13.9733 125.766 14.44C125.15 14.8973 124.385 15.126 123.47 15.126C122.742 15.126 122.089 14.9627 121.51 14.636C120.941 14.3093 120.493 13.8473 120.166 13.25C119.84 12.6433 119.676 11.9433 119.676 11.15C119.676 10.3567 119.835 9.66133 120.152 9.064C120.47 8.46667 120.913 8.00933 121.482 7.692C122.061 7.36533 122.724 7.202 123.47 7.202C124.198 7.202 124.842 7.36067 125.402 7.678C125.962 7.99533 126.392 8.434 126.69 8.994C126.998 9.54467 127.152 10.17 127.152 10.87ZM125.836 10.604C125.836 10.1187 125.729 9.70333 125.514 9.358C125.3 9.00333 125.006 8.73733 124.632 8.56C124.268 8.37333 123.862 8.28 123.414 8.28C122.77 8.28 122.22 8.48533 121.762 8.896C121.314 9.30667 121.058 9.876 120.992 10.604H125.836ZM130.388 8.378V12.9C130.388 13.2733 130.467 13.5393 130.626 13.698C130.785 13.8473 131.06 13.922 131.452 13.922H132.39V15H131.242C130.533 15 130.001 14.8367 129.646 14.51C129.291 14.1833 129.114 13.6467 129.114 12.9V8.378H128.12V7.328H129.114V5.396H130.388V7.328H132.39V8.378H130.388ZM140.737 7.328V15H139.463V13.866C139.221 14.258 138.88 14.566 138.441 14.79C138.012 15.0047 137.536 15.112 137.013 15.112C136.416 15.112 135.879 14.9907 135.403 14.748C134.927 14.496 134.549 14.1227 134.269 13.628C133.999 13.1333 133.863 12.5313 133.863 11.822V7.328H135.123V11.654C135.123 12.41 135.315 12.9933 135.697 13.404C136.08 13.8053 136.603 14.006 137.265 14.006C137.947 14.006 138.483 13.796 138.875 13.376C139.267 12.956 139.463 12.3447 139.463 11.542V7.328H140.737ZM144.163 8.574C144.387 8.13533 144.704 7.79467 145.115 7.552C145.535 7.30933 146.043 7.188 146.641 7.188V8.504H146.305C144.877 8.504 144.163 9.27867 144.163 10.828V15H142.889V7.328H144.163V8.574ZM151.849 7.188C152.783 7.188 153.539 7.47267 154.117 8.042C154.696 8.602 154.985 9.414 154.985 10.478V15H153.725V10.66C153.725 9.89467 153.534 9.31133 153.151 8.91C152.769 8.49933 152.246 8.294 151.583 8.294C150.911 8.294 150.375 8.504 149.973 8.924C149.581 9.344 149.385 9.95533 149.385 10.758V15H148.111V7.328H149.385V8.42C149.637 8.028 149.978 7.72467 150.407 7.51C150.846 7.29533 151.327 7.188 151.849 7.188Z" fill="#4B5563"/>
<defs>
<clipPath id="clip0_298_10752">
<rect width="16" height="16" fill="white" transform="translate(0 2)"/>
</clipPath>
</defs>
</svg>
