<svg width="118" height="20" viewBox="0 0 118 20" fill="none" xmlns="http://www.w3.org/2000/svg">
<g clip-path="url(#clip0_298_10738)">
<path d="M8 11.3333H8.66667C9.4 11.3333 10 10.7333 10 9.99998V3.33331H4C3 3.33331 2.12667 3.88664 1.67334 4.69997" stroke="#4B5563" stroke-width="1.5" stroke-linecap="round" stroke-linejoin="round"/>
<path d="M1.33337 13.3333C1.33337 14.44 2.22671 15.3333 3.33337 15.3333H4.00004C4.00004 14.6 4.60004 14 5.33337 14C6.06671 14 6.66671 14.6 6.66671 15.3333H9.33337C9.33337 14.6 9.93337 14 10.6667 14C11.4 14 12 14.6 12 15.3333H12.6667C13.7734 15.3333 14.6667 14.44 14.6667 13.3333V11.3333H12.6667C12.3 11.3333 12 11.0333 12 10.6666V8.66665C12 8.29998 12.3 7.99998 12.6667 7.99998H13.5267L12.3867 6.00665C12.1467 5.59332 11.7067 5.33331 11.2267 5.33331H10V9.99998C10 10.7333 9.40004 11.3333 8.66671 11.3333H8.00004" stroke="#4B5563" stroke-width="1.5" stroke-linecap="round" stroke-linejoin="round"/>
<path d="M5.33333 16.6667C6.06971 16.6667 6.66667 16.0697 6.66667 15.3333C6.66667 14.5969 6.06971 14 5.33333 14C4.59695 14 4 14.5969 4 15.3333C4 16.0697 4.59695 16.6667 5.33333 16.6667Z" stroke="#4B5563" stroke-width="1.5" stroke-linecap="round" stroke-linejoin="round"/>
<path d="M10.6667 16.6667C11.4031 16.6667 12 16.0697 12 15.3333C12 14.5969 11.4031 14 10.6667 14C9.93031 14 9.33337 14.5969 9.33337 15.3333C9.33337 16.0697 9.93031 16.6667 10.6667 16.6667Z" stroke="#4B5563" stroke-width="1.5" stroke-linecap="round" stroke-linejoin="round"/>
<path d="M14.6667 10V11.3333H12.6667C12.3 11.3333 12 11.0333 12 10.6667V8.66667C12 8.3 12.3 8 12.6667 8H13.5267L14.6667 10Z" stroke="#4B5563" stroke-width="1.5" stroke-linecap="round" stroke-linejoin="round"/>
<path d="M1.33337 7.33331H5.33337" stroke="#4B5563" stroke-width="1.5" stroke-linecap="round" stroke-linejoin="round"/>
<path d="M1.33337 9.33331H4.00004" stroke="#4B5563" stroke-width="1.5" stroke-linecap="round" stroke-linejoin="round"/>
<path d="M1.33337 11.3333H2.66671" stroke="#4B5563" stroke-width="1.5" stroke-linecap="round" stroke-linejoin="round"/>
</g>
<path d="M30.594 5.242V6.278H26.352V9.568H29.796V10.604H26.352V15H25.078V5.242H30.594ZM33.4067 8.574C33.6307 8.13533 33.948 7.79467 34.3587 7.552C34.7787 7.30933 35.2874 7.188 35.8847 7.188V8.504H35.5487C34.1207 8.504 33.4067 9.27867 33.4067 10.828V15H32.1327V7.328H33.4067V8.574ZM44.3553 10.87C44.3553 11.1127 44.3413 11.3693 44.3133 11.64H38.1813C38.228 12.396 38.4847 12.9887 38.9513 13.418C39.4273 13.838 40.0013 14.048 40.6733 14.048C41.224 14.048 41.6813 13.922 42.0453 13.67C42.4187 13.4087 42.68 13.0633 42.8293 12.634H44.2013C43.996 13.3713 43.5853 13.9733 42.9693 14.44C42.3533 14.8973 41.588 15.126 40.6733 15.126C39.9453 15.126 39.292 14.9627 38.7133 14.636C38.144 14.3093 37.696 13.8473 37.3693 13.25C37.0427 12.6433 36.8793 11.9433 36.8793 11.15C36.8793 10.3567 37.038 9.66133 37.3553 9.064C37.6727 8.46667 38.116 8.00933 38.6853 7.692C39.264 7.36533 39.9267 7.202 40.6733 7.202C41.4013 7.202 42.0453 7.36067 42.6053 7.678C43.1653 7.99533 43.5947 8.434 43.8933 8.994C44.2013 9.54467 44.3553 10.17 44.3553 10.87ZM43.0393 10.604C43.0393 10.1187 42.932 9.70333 42.7173 9.358C42.5027 9.00333 42.2087 8.73733 41.8353 8.56C41.4713 8.37333 41.0653 8.28 40.6173 8.28C39.9733 8.28 39.4227 8.48533 38.9653 8.896C38.5173 9.30667 38.2607 9.876 38.1953 10.604H43.0393ZM53.037 10.87C53.037 11.1127 53.023 11.3693 52.995 11.64H46.863C46.9097 12.396 47.1663 12.9887 47.633 13.418C48.109 13.838 48.683 14.048 49.355 14.048C49.9057 14.048 50.363 13.922 50.727 13.67C51.1003 13.4087 51.3617 13.0633 51.511 12.634H52.883C52.6777 13.3713 52.267 13.9733 51.651 14.44C51.035 14.8973 50.2697 15.126 49.355 15.126C48.627 15.126 47.9737 14.9627 47.395 14.636C46.8257 14.3093 46.3777 13.8473 46.051 13.25C45.7243 12.6433 45.561 11.9433 45.561 11.15C45.561 10.3567 45.7197 9.66133 46.037 9.064C46.3543 8.46667 46.7977 8.00933 47.367 7.692C47.9457 7.36533 48.6083 7.202 49.355 7.202C50.083 7.202 50.727 7.36067 51.287 7.678C51.847 7.99533 52.2763 8.434 52.575 8.994C52.883 9.54467 53.037 10.17 53.037 10.87ZM51.721 10.604C51.721 10.1187 51.6137 9.70333 51.399 9.358C51.1843 9.00333 50.8903 8.73733 50.517 8.56C50.153 8.37333 49.747 8.28 49.299 8.28C48.655 8.28 48.1043 8.48533 47.647 8.896C47.199 9.30667 46.9423 9.876 46.877 10.604H51.721ZM61.167 15.126C60.579 15.126 60.0517 15.028 59.585 14.832C59.1184 14.6267 58.7497 14.3467 58.479 13.992C58.2084 13.628 58.059 13.2127 58.031 12.746H59.347C59.3844 13.1287 59.5617 13.4413 59.879 13.684C60.2057 13.9267 60.6304 14.048 61.153 14.048C61.6384 14.048 62.021 13.9407 62.301 13.726C62.581 13.5113 62.721 13.2407 62.721 12.914C62.721 12.578 62.5717 12.3307 62.273 12.172C61.9744 12.004 61.5124 11.8407 60.887 11.682C60.3177 11.5327 59.851 11.3833 59.487 11.234C59.1324 11.0753 58.8244 10.8467 58.563 10.548C58.311 10.24 58.185 9.83867 58.185 9.344C58.185 8.952 58.3017 8.59267 58.535 8.266C58.7684 7.93933 59.0997 7.68267 59.529 7.496C59.9584 7.3 60.4484 7.202 60.999 7.202C61.8484 7.202 62.5344 7.41667 63.057 7.846C63.5797 8.27533 63.8597 8.86333 63.897 9.61H62.623C62.595 9.20867 62.4317 8.88667 62.133 8.644C61.8437 8.40133 61.4517 8.28 60.957 8.28C60.4997 8.28 60.1357 8.378 59.865 8.574C59.5944 8.77 59.459 9.02667 59.459 9.344C59.459 9.596 59.5384 9.806 59.697 9.974C59.865 10.1327 60.0704 10.2633 60.313 10.366C60.565 10.4593 60.9104 10.5667 61.349 10.688C61.8997 10.8373 62.3477 10.9867 62.693 11.136C63.0384 11.276 63.3324 11.4907 63.575 11.78C63.827 12.0693 63.9577 12.4473 63.967 12.914C63.967 13.334 63.8504 13.712 63.617 14.048C63.3837 14.384 63.0524 14.65 62.623 14.846C62.203 15.0327 61.7177 15.126 61.167 15.126ZM69.5735 7.188C70.1522 7.188 70.6748 7.314 71.1415 7.566C71.6082 7.80867 71.9722 8.17733 72.2335 8.672C72.5042 9.16667 72.6395 9.76867 72.6395 10.478V15H71.3795V10.66C71.3795 9.89467 71.1882 9.31133 70.8055 8.91C70.4228 8.49933 69.9002 8.294 69.2375 8.294C68.5655 8.294 68.0288 8.504 67.6275 8.924C67.2355 9.344 67.0395 9.95533 67.0395 10.758V15H65.7655V4.64H67.0395V8.42C67.2915 8.028 67.6368 7.72467 68.0755 7.51C68.5235 7.29533 69.0228 7.188 69.5735 7.188ZM75.3786 6.082C75.1359 6.082 74.9306 5.998 74.7626 5.83C74.5946 5.662 74.5106 5.45667 74.5106 5.214C74.5106 4.97133 74.5946 4.766 74.7626 4.598C74.9306 4.43 75.1359 4.346 75.3786 4.346C75.6119 4.346 75.8079 4.43 75.9666 4.598C76.1346 4.766 76.2186 4.97133 76.2186 5.214C76.2186 5.45667 76.1346 5.662 75.9666 5.83C75.8079 5.998 75.6119 6.082 75.3786 6.082ZM75.9946 7.328V15H74.7206V7.328H75.9946ZM79.4399 8.742C79.6919 8.30333 80.0652 7.93933 80.5599 7.65C81.0639 7.35133 81.6472 7.202 82.3099 7.202C82.9912 7.202 83.6072 7.36533 84.1579 7.692C84.7179 8.01867 85.1566 8.48067 85.4739 9.078C85.7912 9.666 85.9499 10.352 85.9499 11.136C85.9499 11.9107 85.7912 12.6013 85.4739 13.208C85.1566 13.8147 84.7179 14.286 84.1579 14.622C83.6072 14.958 82.9912 15.126 82.3099 15.126C81.6566 15.126 81.0779 14.9813 80.5739 14.692C80.0792 14.3933 79.7012 14.0247 79.4399 13.586V18.64H78.1659V7.328H79.4399V8.742ZM84.6479 11.136C84.6479 10.5573 84.5312 10.0533 84.2979 9.624C84.0646 9.19467 83.7472 8.868 83.3459 8.644C82.9539 8.42 82.5199 8.308 82.0439 8.308C81.5772 8.308 81.1432 8.42467 80.7419 8.658C80.3499 8.882 80.0326 9.21333 79.7899 9.652C79.5566 10.0813 79.4399 10.5807 79.4399 11.15C79.4399 11.7287 79.5566 12.2373 79.7899 12.676C80.0326 13.1053 80.3499 13.4367 80.7419 13.67C81.1432 13.894 81.5772 14.006 82.0439 14.006C82.5199 14.006 82.9539 13.894 83.3459 13.67C83.7472 13.4367 84.0646 13.1053 84.2979 12.676C84.5312 12.2373 84.6479 11.724 84.6479 11.136ZM88.9008 8.742C89.1528 8.30333 89.5262 7.93933 90.0208 7.65C90.5248 7.35133 91.1082 7.202 91.7708 7.202C92.4522 7.202 93.0682 7.36533 93.6188 7.692C94.1788 8.01867 94.6175 8.48067 94.9348 9.078C95.2522 9.666 95.4108 10.352 95.4108 11.136C95.4108 11.9107 95.2522 12.6013 94.9348 13.208C94.6175 13.8147 94.1788 14.286 93.6188 14.622C93.0682 14.958 92.4522 15.126 91.7708 15.126C91.1175 15.126 90.5388 14.9813 90.0348 14.692C89.5402 14.3933 89.1622 14.0247 88.9008 13.586V18.64H87.6268V7.328H88.9008V8.742ZM94.1088 11.136C94.1088 10.5573 93.9922 10.0533 93.7588 9.624C93.5255 9.19467 93.2082 8.868 92.8068 8.644C92.4148 8.42 91.9808 8.308 91.5048 8.308C91.0382 8.308 90.6042 8.42467 90.2028 8.658C89.8108 8.882 89.4935 9.21333 89.2508 9.652C89.0175 10.0813 88.9008 10.5807 88.9008 11.15C88.9008 11.7287 89.0175 12.2373 89.2508 12.676C89.4935 13.1053 89.8108 13.4367 90.2028 13.67C90.6042 13.894 91.0382 14.006 91.5048 14.006C91.9808 14.006 92.4148 13.894 92.8068 13.67C93.2082 13.4367 93.5255 13.1053 93.7588 12.676C93.9922 12.2373 94.1088 11.724 94.1088 11.136ZM97.7458 6.082C97.5031 6.082 97.2978 5.998 97.1298 5.83C96.9618 5.662 96.8778 5.45667 96.8778 5.214C96.8778 4.97133 96.9618 4.766 97.1298 4.598C97.2978 4.43 97.5031 4.346 97.7458 4.346C97.9791 4.346 98.1751 4.43 98.3338 4.598C98.5018 4.766 98.5858 4.97133 98.5858 5.214C98.5858 5.45667 98.5018 5.662 98.3338 5.83C98.1751 5.998 97.9791 6.082 97.7458 6.082ZM98.3618 7.328V15H97.0878V7.328H98.3618ZM104.271 7.188C105.204 7.188 105.96 7.47267 106.539 8.042C107.118 8.602 107.407 9.414 107.407 10.478V15H106.147V10.66C106.147 9.89467 105.956 9.31133 105.573 8.91C105.19 8.49933 104.668 8.294 104.005 8.294C103.333 8.294 102.796 8.504 102.395 8.924C102.003 9.344 101.807 9.95533 101.807 10.758V15H100.533V7.328H101.807V8.42C102.059 8.028 102.4 7.72467 102.829 7.51C103.268 7.29533 103.748 7.188 104.271 7.188ZM112.652 7.202C113.315 7.202 113.893 7.34667 114.388 7.636C114.892 7.92533 115.265 8.28933 115.508 8.728V7.328H116.796V15.168C116.796 15.868 116.647 16.4887 116.348 17.03C116.049 17.5807 115.62 18.01 115.06 18.318C114.509 18.626 113.865 18.78 113.128 18.78C112.12 18.78 111.28 18.542 110.608 18.066C109.936 17.59 109.539 16.9413 109.418 16.12H110.678C110.818 16.5867 111.107 16.96 111.546 17.24C111.985 17.5293 112.512 17.674 113.128 17.674C113.828 17.674 114.397 17.4547 114.836 17.016C115.284 16.5773 115.508 15.9613 115.508 15.168V13.558C115.256 14.006 114.883 14.3793 114.388 14.678C113.893 14.9767 113.315 15.126 112.652 15.126C111.971 15.126 111.35 14.958 110.79 14.622C110.239 14.286 109.805 13.8147 109.488 13.208C109.171 12.6013 109.012 11.9107 109.012 11.136C109.012 10.352 109.171 9.666 109.488 9.078C109.805 8.48067 110.239 8.01867 110.79 7.692C111.35 7.36533 111.971 7.202 112.652 7.202ZM115.508 11.15C115.508 10.5713 115.391 10.0673 115.158 9.638C114.925 9.20867 114.607 8.882 114.206 8.658C113.814 8.42467 113.38 8.308 112.904 8.308C112.428 8.308 111.994 8.42 111.602 8.644C111.21 8.868 110.897 9.19467 110.664 9.624C110.431 10.0533 110.314 10.5573 110.314 11.136C110.314 11.724 110.431 12.2373 110.664 12.676C110.897 13.1053 111.21 13.4367 111.602 13.67C111.994 13.894 112.428 14.006 112.904 14.006C113.38 14.006 113.814 13.894 114.206 13.67C114.607 13.4367 114.925 13.1053 115.158 12.676C115.391 12.2373 115.508 11.7287 115.508 11.15Z" fill="#4B5563"/>
<defs>
<clipPath id="clip0_298_10738">
<rect width="16" height="16" fill="white" transform="translate(0 2)"/>
</clipPath>
</defs>
</svg>
