<svg width="10" height="20" viewBox="0 0 10 20" fill="none" xmlns="http://www.w3.org/2000/svg">
<g clip-path="url(#clip0_298_10766)">
<path d="M8.00004 16.6666C11.6819 16.6666 14.6667 13.6818 14.6667 9.99998C14.6667 6.31808 11.6819 3.33331 8.00004 3.33331C4.31814 3.33331 1.33337 6.31808 1.33337 9.99998C1.33337 13.6818 4.31814 16.6666 8.00004 16.6666Z" stroke="#4B5563" stroke-width="1.5" stroke-linecap="round" stroke-linejoin="round"/>
<path d="M5.33336 4H6.00002C4.70002 7.89333 4.70002 12.1067 6.00002 16H5.33336" stroke="#4B5563" stroke-width="1.5" stroke-linecap="round" stroke-linejoin="round"/>
<path d="M10 4C11.3 7.89333 11.3 12.1067 10 16" stroke="#4B5563" stroke-width="1.5" stroke-linecap="round" stroke-linejoin="round"/>
<path d="M2 12.6667V12C5.89333 13.3 10.1067 13.3 14 12V12.6667" stroke="#4B5563" stroke-width="1.5" stroke-linecap="round" stroke-linejoin="round"/>
<path d="M2 8.00009C5.89333 6.70009 10.1067 6.70009 14 8.00009" stroke="#4B5563" stroke-width="1.5" stroke-linecap="round" stroke-linejoin="round"/>
</g>
<defs>
<clipPath id="clip0_298_10766">
<rect width="16" height="16" fill="white" transform="translate(0 2)"/>
</clipPath>
</defs>
</svg>
