<svg width="36" height="37" viewBox="0 0 36 37" fill="none" xmlns="http://www.w3.org/2000/svg">
<rect y="0.444092" width="36" height="36" rx="18" fill="white"/>
<path d="M15.3333 17.7775C15.7015 17.7775 16 18.0759 16 18.4441C16 19.5487 16.8954 20.4441 18 20.4441C19.1045 20.4441 20 19.5487 20 18.4441C20 18.0759 20.2984 17.7775 20.6666 17.7775C21.0348 17.7775 21.3333 18.0759 21.3333 18.4441C21.3333 20.2851 19.8409 21.7775 18 21.7775C16.159 21.7775 14.6666 20.2851 14.6666 18.4441C14.6666 18.0759 14.9651 17.7775 15.3333 17.7775Z" fill="#4B5563"/>
<path fill-rule="evenodd" clip-rule="evenodd" d="M21.3333 15.1107H22.7584C23.8077 15.1107 24.6786 15.9216 24.7534 16.9682L25.1275 22.2066C25.2654 24.1361 23.7371 25.7774 21.8027 25.7774H14.1972C12.2627 25.7774 10.7345 24.1361 10.8724 22.2066L11.2465 16.9682C11.3213 15.9216 12.1922 15.1107 13.2414 15.1107H14.6666V14.4441C14.6666 12.6031 16.159 11.1107 17.9999 11.1107C19.8409 11.1107 21.3333 12.6031 21.3333 14.4441V15.1107ZM15.9999 15.1107H19.9999V14.4441C19.9999 13.3395 19.1045 12.4441 17.9999 12.4441C16.8954 12.4441 15.9999 13.3395 15.9999 14.4441V15.1107ZM13.2414 16.4441C12.8917 16.4441 12.6014 16.7143 12.5765 17.0632L12.2023 22.3016C12.1196 23.4593 13.0365 24.4441 14.1972 24.4441H21.8027C22.9634 24.4441 23.8803 23.4593 23.7976 22.3016L23.4234 17.0632C23.3985 16.7143 23.1082 16.4441 22.7584 16.4441H13.2414Z" fill="#4B5563"/>
</svg>
