<svg width="10" height="20" viewBox="0 0 10 20" fill="none" xmlns="http://www.w3.org/2000/svg">
<path d="M7.616 12.228C7.616 12.6947 7.49933 13.1333 7.266 13.544C7.042 13.9547 6.706 14.3 6.258 14.58C5.81933 14.86 5.29667 15.028 4.69 15.084V16.218H3.78V15.084C2.90267 15 2.19333 14.7247 1.652 14.258C1.11067 13.7913 0.84 13.1753 0.84 12.41H2.548C2.576 12.774 2.69267 13.0773 2.898 13.32C3.10333 13.5533 3.39733 13.7027 3.78 13.768V10.688C3.15467 10.5293 2.646 10.3707 2.254 10.212C1.862 10.044 1.526 9.78267 1.246 9.428C0.975333 9.07333 0.84 8.588 0.84 7.972C0.84 7.19733 1.11067 6.558 1.652 6.054C2.19333 5.54067 2.90267 5.242 3.78 5.158V4.024H4.69V5.158C5.51133 5.23267 6.16933 5.494 6.664 5.942C7.168 6.38067 7.45267 6.98733 7.518 7.762H5.81C5.782 7.47267 5.67 7.216 5.474 6.992C5.278 6.75867 5.01667 6.6 4.69 6.516V9.54C5.31533 9.68933 5.824 9.848 6.216 10.016C6.608 10.1747 6.93933 10.4313 7.21 10.786C7.48067 11.1313 7.616 11.612 7.616 12.228ZM2.464 7.888C2.464 8.27067 2.576 8.56933 2.8 8.784C3.03333 8.99867 3.36 9.17133 3.78 9.302V6.474C3.37867 6.52067 3.05667 6.66533 2.814 6.908C2.58067 7.15067 2.464 7.47733 2.464 7.888ZM4.69 13.768C5.10067 13.7027 5.42267 13.5393 5.656 13.278C5.88933 13.0073 6.006 12.6853 6.006 12.312C6.006 11.9387 5.88933 11.6493 5.656 11.444C5.432 11.2293 5.11 11.0567 4.69 10.926V13.768Z" fill="#4B5563"/>
</svg>
