<svg width="15" height="15" viewBox="0 0 15 15" fill="none" xmlns="http://www.w3.org/2000/svg">
<path fill-rule="evenodd" clip-rule="evenodd" d="M10.4696 4H11.8947C12.944 4 13.8149 4.8109 13.8897 5.85751L14.2638 11.0958C14.4017 13.0254 12.8734 14.6667 10.939 14.6667H3.33351C1.39904 14.6667 -0.129183 13.0254 0.00864265 11.0958L0.38281 5.85751C0.457569 4.8109 1.32845 4 2.37773 4H3.8029V3.33333C3.8029 1.49239 5.29529 0 7.13623 0C8.97717 0 10.4696 1.49239 10.4696 3.33333V4ZM5.13623 4H9.13623V3.33333C9.13623 2.22876 8.2408 1.33333 7.13623 1.33333C6.03166 1.33333 5.13623 2.22876 5.13623 3.33333V4ZM2.37773 5.33333C2.02797 5.33333 1.73767 5.60363 1.71275 5.9525L1.3386 11.1908C1.25589 12.3486 2.17282 13.3333 3.33351 13.3333H10.939C12.0996 13.3333 13.0166 12.3486 12.9339 11.1908L12.5597 5.9525C12.5348 5.60363 12.2445 5.33333 11.8947 5.33333H2.37773Z" fill="#F8FAFC"/>
</svg>
