<svg width="52" height="21" viewBox="0 0 52 21" fill="none" xmlns="http://www.w3.org/2000/svg">
<path d="M7.378 12.7701C7.378 13.2181 7.266 13.6474 7.042 14.0581C6.818 14.4594 6.48667 14.7954 6.048 15.0661C5.61867 15.3368 5.10067 15.4908 4.494 15.5281V16.6621H3.738V15.5281C2.88867 15.4534 2.198 15.1828 1.666 14.7161C1.134 14.2401 0.863333 13.6381 0.854 12.9101H2.212C2.24933 13.3021 2.394 13.6428 2.646 13.9321C2.90733 14.2214 3.27133 14.4034 3.738 14.4781V10.9781C3.11267 10.8194 2.60867 10.6561 2.226 10.4881C1.84333 10.3201 1.51667 10.0588 1.246 9.70409C0.975333 9.34942 0.84 8.87342 0.84 8.27609C0.84 7.52009 1.10133 6.89476 1.624 6.40009C2.156 5.90542 2.86067 5.63009 3.738 5.57409V4.41209H4.494V5.57409C5.28733 5.63942 5.92667 5.89609 6.412 6.34409C6.89733 6.78276 7.17733 7.35676 7.252 8.06609H5.894C5.84733 7.73942 5.70267 7.44542 5.46 7.18409C5.21733 6.91342 4.89533 6.73609 4.494 6.65209V10.0681C5.11 10.2268 5.60933 10.3901 5.992 10.5581C6.384 10.7168 6.71067 10.9734 6.972 11.3281C7.24267 11.6828 7.378 12.1634 7.378 12.7701ZM2.142 8.20609C2.142 8.66342 2.27733 9.01342 2.548 9.25609C2.81867 9.49876 3.21533 9.69942 3.738 9.85809V6.62409C3.25267 6.67076 2.86533 6.82943 2.576 7.10009C2.28667 7.36142 2.142 7.73009 2.142 8.20609ZM4.494 14.4921C4.998 14.4361 5.39 14.2541 5.67 13.9461C5.95933 13.6381 6.104 13.2694 6.104 12.8401C6.104 12.3828 5.964 12.0328 5.684 11.7901C5.404 11.5381 5.00733 11.3374 4.494 11.1881V14.4921ZM9.24098 6.48409V5.32209H11.873V15.4441H10.585V6.48409H9.24098ZM15.6994 12.7281C15.7927 13.2601 16.0074 13.6708 16.3434 13.9601C16.6887 14.2494 17.1507 14.3941 17.7294 14.3941C18.504 14.3941 19.0734 14.0908 19.4374 13.4841C19.8107 12.8774 19.988 11.8554 19.9694 10.4181C19.7734 10.8381 19.4467 11.1694 18.9894 11.4121C18.532 11.6454 18.0234 11.7621 17.4634 11.7621C16.838 11.7621 16.278 11.6361 15.7834 11.3841C15.298 11.1228 14.9154 10.7448 14.6354 10.2501C14.3554 9.75542 14.2154 9.15809 14.2154 8.45809C14.2154 7.45943 14.5047 6.65676 15.0834 6.05009C15.662 5.43409 16.4834 5.12609 17.5474 5.12609C18.854 5.12609 19.7687 5.55076 20.2914 6.40009C20.8234 7.24942 21.0894 8.51409 21.0894 10.1941C21.0894 11.3701 20.982 12.3408 20.7674 13.1061C20.562 13.8714 20.2074 14.4548 19.7034 14.8561C19.2087 15.2574 18.5274 15.4581 17.6594 15.4581C16.7074 15.4581 15.9654 15.2014 15.4334 14.6881C14.9014 14.1748 14.598 13.5214 14.5234 12.7281H15.6994ZM17.6734 10.6841C18.2987 10.6841 18.812 10.4928 19.2134 10.1101C19.6147 9.71809 19.8154 9.19076 19.8154 8.52809C19.8154 7.82809 19.6194 7.26343 19.2274 6.83409C18.8354 6.40476 18.2847 6.19009 17.5754 6.19009C16.922 6.19009 16.3994 6.39542 16.0074 6.80609C15.6247 7.21676 15.4334 7.75809 15.4334 8.43009C15.4334 9.11142 15.6247 9.65742 16.0074 10.0681C16.39 10.4788 16.9454 10.6841 17.6734 10.6841ZM24.5177 12.7281C24.6111 13.2601 24.8257 13.6708 25.1617 13.9601C25.5071 14.2494 25.9691 14.3941 26.5477 14.3941C27.3224 14.3941 27.8917 14.0908 28.2557 13.4841C28.6291 12.8774 28.8064 11.8554 28.7877 10.4181C28.5917 10.8381 28.2651 11.1694 27.8077 11.4121C27.3504 11.6454 26.8417 11.7621 26.2817 11.7621C25.6564 11.7621 25.0964 11.6361 24.6017 11.3841C24.1164 11.1228 23.7337 10.7448 23.4537 10.2501C23.1737 9.75542 23.0337 9.15809 23.0337 8.45809C23.0337 7.45943 23.3231 6.65676 23.9017 6.05009C24.4804 5.43409 25.3017 5.12609 26.3657 5.12609C27.6724 5.12609 28.5871 5.55076 29.1097 6.40009C29.6417 7.24942 29.9077 8.51409 29.9077 10.1941C29.9077 11.3701 29.8004 12.3408 29.5857 13.1061C29.3804 13.8714 29.0257 14.4548 28.5217 14.8561C28.0271 15.2574 27.3457 15.4581 26.4777 15.4581C25.5257 15.4581 24.7837 15.2014 24.2517 14.6881C23.7197 14.1748 23.4164 13.5214 23.3417 12.7281H24.5177ZM26.4917 10.6841C27.1171 10.6841 27.6304 10.4928 28.0317 10.1101C28.4331 9.71809 28.6337 9.19076 28.6337 8.52809C28.6337 7.82809 28.4377 7.26343 28.0457 6.83409C27.6537 6.40476 27.1031 6.19009 26.3937 6.19009C25.7404 6.19009 25.2177 6.39542 24.8257 6.80609C24.4431 7.21676 24.2517 7.75809 24.2517 8.43009C24.2517 9.11142 24.4431 9.65742 24.8257 10.0681C25.2084 10.4788 25.7637 10.6841 26.4917 10.6841ZM32.3141 15.5281C32.0714 15.5281 31.8661 15.4441 31.6981 15.2761C31.5301 15.1081 31.4461 14.9028 31.4461 14.6601C31.4461 14.4174 31.5301 14.2121 31.6981 14.0441C31.8661 13.8761 32.0714 13.7921 32.3141 13.7921C32.5474 13.7921 32.7434 13.8761 32.9021 14.0441C33.0701 14.2121 33.1541 14.4174 33.1541 14.6601C33.1541 14.9028 33.0701 15.1081 32.9021 15.2761C32.7434 15.4441 32.5474 15.5281 32.3141 15.5281ZM36.2755 12.7281C36.3689 13.2601 36.5835 13.6708 36.9195 13.9601C37.2649 14.2494 37.7269 14.3941 38.3055 14.3941C39.0802 14.3941 39.6495 14.0908 40.0135 13.4841C40.3869 12.8774 40.5642 11.8554 40.5455 10.4181C40.3495 10.8381 40.0229 11.1694 39.5655 11.4121C39.1082 11.6454 38.5995 11.7621 38.0395 11.7621C37.4142 11.7621 36.8542 11.6361 36.3595 11.3841C35.8742 11.1228 35.4915 10.7448 35.2115 10.2501C34.9315 9.75542 34.7915 9.15809 34.7915 8.45809C34.7915 7.45943 35.0809 6.65676 35.6595 6.05009C36.2382 5.43409 37.0595 5.12609 38.1235 5.12609C39.4302 5.12609 40.3449 5.55076 40.8675 6.40009C41.3995 7.24942 41.6655 8.51409 41.6655 10.1941C41.6655 11.3701 41.5582 12.3408 41.3435 13.1061C41.1382 13.8714 40.7835 14.4548 40.2795 14.8561C39.7849 15.2574 39.1035 15.4581 38.2355 15.4581C37.2835 15.4581 36.5415 15.2014 36.0095 14.6881C35.4775 14.1748 35.1742 13.5214 35.0995 12.7281H36.2755ZM38.2495 10.6841C38.8749 10.6841 39.3882 10.4928 39.7895 10.1101C40.1909 9.71809 40.3915 9.19076 40.3915 8.52809C40.3915 7.82809 40.1955 7.26343 39.8035 6.83409C39.4115 6.40476 38.8609 6.19009 38.1515 6.19009C37.4982 6.19009 36.9755 6.39542 36.5835 6.80609C36.2009 7.21676 36.0095 7.75809 36.0095 8.43009C36.0095 9.11142 36.2009 9.65742 36.5835 10.0681C36.9662 10.4788 37.5215 10.6841 38.2495 10.6841ZM45.0939 12.7281C45.1872 13.2601 45.4019 13.6708 45.7379 13.9601C46.0832 14.2494 46.5452 14.3941 47.1239 14.3941C47.8986 14.3941 48.4679 14.0908 48.8319 13.4841C49.2052 12.8774 49.3826 11.8554 49.3639 10.4181C49.1679 10.8381 48.8412 11.1694 48.3839 11.4121C47.9266 11.6454 47.4179 11.7621 46.8579 11.7621C46.2326 11.7621 45.6726 11.6361 45.1779 11.3841C44.6926 11.1228 44.3099 10.7448 44.0299 10.2501C43.7499 9.75542 43.6099 9.15809 43.6099 8.45809C43.6099 7.45943 43.8992 6.65676 44.4779 6.05009C45.0566 5.43409 45.8779 5.12609 46.9419 5.12609C48.2486 5.12609 49.1632 5.55076 49.6859 6.40009C50.2179 7.24942 50.4839 8.51409 50.4839 10.1941C50.4839 11.3701 50.3766 12.3408 50.1619 13.1061C49.9566 13.8714 49.6019 14.4548 49.0979 14.8561C48.6032 15.2574 47.9219 15.4581 47.0539 15.4581C46.1019 15.4581 45.3599 15.2014 44.8279 14.6881C44.2959 14.1748 43.9926 13.5214 43.9179 12.7281H45.0939ZM47.0679 10.6841C47.6932 10.6841 48.2066 10.4928 48.6079 10.1101C49.0092 9.71809 49.2099 9.19076 49.2099 8.52809C49.2099 7.82809 49.0139 7.26343 48.6219 6.83409C48.2299 6.40476 47.6792 6.19009 46.9699 6.19009C46.3166 6.19009 45.7939 6.39542 45.4019 6.80609C45.0192 7.21676 44.8279 7.75809 44.8279 8.43009C44.8279 9.11142 45.0192 9.65742 45.4019 10.0681C45.7846 10.4788 46.3399 10.6841 47.0679 10.6841Z" fill="#4B5563"/>
<path d="M0 10.8521H51.4079V11.5521H0V10.8521Z" fill="#4B5563"/>
</svg>
